<svg height="464pt" viewBox="0 0 464 464.03527" width="464pt" xmlns="http://www.w3.org/2000/svg"><path d="m104.019531 352c0-8.835938 7.160157-16 16-16h-96l8 128h56l16-80zm0 0" fill="#fd412d"/><path d="m104.019531 216c0 8.835938-7.164062 16-16 16-8.839843 0-16-7.164062-16-16s7.160157-16 16-16c8.835938 0 16 7.164062 16 16zm0 0" fill="#f9c170"/><path d="m48.019531 176c0 8.835938-7.164062 16-16 16-8.839843 0-16-7.164062-16-16s7.160157-16 16-16c8.835938 0 16 7.164062 16 16zm0 0" fill="#f9c170"/><path d="m144.019531 256c-6.089843.019531-11.640625 3.492188-14.320312 8.960938-1.835938-.609376-3.75-.933594-5.679688-.960938-6.296875 0-12.226562 2.964844-16 8-3.769531-5.046875-9.703125-8.011719-16-8-5.894531-.019531-11.480469 2.628906-15.203125 7.199219-5.078125-9.800781-15.457031-15.6875-26.476562-15.019531-11.019532.671874-20.609375 7.769531-24.46875 18.109374-3.859375 10.34375-1.261719 21.988282 6.625 29.710938h111.523437zm0 0" fill="#f9c170"/><path d="m144.019531 304h-128c-8.839843 0-15.9999998 7.164062-15.9999998 16s7.1601568 16 15.9999998 16h128zm0 0" fill="#fd412d"/><g fill="#d6332b"><path d="m104.019531 360v-8c.03125-5.683594 3.078125-10.917969 8-13.761719v-2.238281h-88l1.519531 24zm0 0"/><path d="m48.019531 464h56v-104h-8zm0 0"/><path d="m104.019531 336h40v-32h-16zm0 0"/><path d="m40.019531 416c-5.277343-21.199219-7.964843-42.957031-8-64.800781v-15.199219h-8l8 128h32c-10.441406-14.660156-18.539062-30.851562-24-48zm0 0"/></g><path d="m129.699219 264.960938c-1.835938-.609376-3.75-.933594-5.679688-.960938h-2.480469l-3.519531 8.71875c-3.546875 9.09375-12.242187 15.132812-22 15.28125h-34.402343c-6.324219-.011719-12.316407-2.832031-16.351563-7.703125-4.03125-4.871094-5.691406-11.28125-4.527344-17.496094v-.480469c.304688-1.5.730469-2.972656 1.28125-4.398437-8.902343 3.398437-15.453125 11.101563-17.382812 20.429687-1.925781 9.332032 1.035156 19 7.859375 25.648438h111.523437v-48c-6.089843.019531-11.640625 3.492188-14.320312 8.960938zm0 0" fill="#faa108"/><path d="m96.019531 224c-8.839843 0-16-7.164062-16-16-.019531-2.265625.472657-4.507812 1.4375-6.558594-5.734375 2.574219-9.425781 8.273438-9.4375 14.558594 0 8.835938 7.160157 16 16 16 6.285157-.011719 11.980469-3.707031 14.558594-9.441406-2.050781.96875-4.292969 1.460937-6.558594 1.441406zm0 0" fill="#faa108"/><path d="m40.019531 184c-8.839843 0-16-7.164062-16-16-.019531-2.265625.472657-4.507812 1.4375-6.558594-5.734375 2.574219-9.425781 8.273438-9.4375 14.558594 0 8.835938 7.160157 16 16 16 6.285157-.011719 11.980469-3.707031 14.558594-9.441406-2.050781.96875-4.292969 1.460937-6.558594 1.441406zm0 0" fill="#faa108"/><path d="m232.019531 464h-144l16-80h112zm0 0" fill="#70dda8"/><path d="m151.058594 448c-9.519532-.101562-18.5-4.4375-24.5-11.832031-6-7.390625-8.398438-17.070313-6.539063-26.40625l4.796875-25.761719h-20.796875l-16 80h144l-3.203125-16zm0 0" fill="#40bf7c"/><path d="m120.019531 336h80c8.835938 0 16 7.164062 16 16v32h-112v-32c0-8.835938 7.160157-16 16-16zm0 0" fill="#fc756b"/><path d="m160.019531 112c8.835938 0 16 7.164062 16 16v208h-32v-208c0-8.835938 7.160157-16 16-16zm0 0" fill="#70dda8"/><path d="m152.019531 456c-4.421875 0-8-3.582031-8-8v-32c0-4.417969 3.578125-8 8-8 4.417969 0 8 3.582031 8 8v32c0 4.417969-3.582031 8-8 8zm0 0" fill="#2b8955"/><path d="m184.019531 456c-4.421875 0-8-3.582031-8-8v-16c0-4.417969 3.578125-8 8-8 4.417969 0 8 3.582031 8 8v16c0 4.417969-3.582031 8-8 8zm0 0" fill="#2b8955"/><path d="m120.019531 456c-4.421875 0-8-3.582031-8-8v-16c0-4.417969 3.578125-8 8-8 4.417969 0 8 3.582031 8 8v16c0 4.417969-3.582031 8-8 8zm0 0" fill="#2b8955"/><path d="m192.019531 400c0 4.417969-3.582031 8-8 8-4.421875 0-8-3.582031-8-8s3.578125-8 8-8c4.417969 0 8 3.582031 8 8zm0 0" fill="#2b8955"/><path d="m144.019531 336h-24c-8.839843 0-16 7.164062-16 16v32h24v-32c0-8.835938 7.160157-16 16-16zm0 0" fill="#fd412d"/><path d="m160.019531 288v-176c-8.839843 0-16 7.164062-16 16v208h32v-12.238281c-10.179687-9.105469-15.996093-22.109375-16-35.761719zm0 0" fill="#40bf7c"/><path d="m416.019531 136v-72c0-35.347656-28.65625-64-64-64-35.347656 0-64 28.652344-64 64v72" fill="#fd412d"/><path d="m368.019531 2c-5.234375-1.320312-10.605469-1.9921875-16-2-35.347656 0-64 28.652344-64 64v72h48v-40h-16v-32c-.015625-29.195312 19.730469-54.699219 48-62zm0 0" fill="#d6332b"/><path d="m328.019531 104h48v32h-48zm0 0" fill="#d6850d"/><path d="m312.019531 40h80v40c0 22.089844-17.910156 40-40 40-22.09375 0-40-17.910156-40-40zm0 0" fill="#faa108"/><path d="m328.019531 80v-24h64v-16h-80v40c0 22.089844 17.90625 40 40 40 2.6875.019531 5.367188-.25 8-.800781-18.628906-3.800781-32.003906-20.1875-32-39.199219zm0 0" fill="#d6850d"/><path d="m280.019531 212c0 11.046875-8.957031 20-20 20h-84v-40h64v-52c0-11.046875 8.953125-20 20-20h184c11.042969 0 20 8.953125 20 20v108c0 11.046875-8.957031 20-20 20-11.046875 0-20-8.953125-20-20v-80h-144zm0 0" fill="#faa108"/><path d="m444.019531 120h-16c11.042969 0 20 8.953125 20 20v108c.015625 7.953125-4.703125 15.15625-12 18.320312 2.511719 1.128907 5.242188 1.703126 8 1.679688 11.042969 0 20-8.953125 20-20v-108c0-11.046875-8.957031-20-20-20zm0 0" fill="#f9c170"/><path d="m280.019531 152c-8.839843 0-16 7.164062-16 16v40c0 4.417969-3.582031 8-8 8h-80v16h84c11.042969 0 20-8.953125 20-20zm0 0" fill="#d6850d"/><path d="m424.019531 256v-88h-144v88l-24 128h192zm0 0" fill="#70dda8"/><path d="m288.019531 384h48v56c0 13.253906-10.746093 24-24 24-13.257812 0-24-10.746094-24-24zm0 0" fill="#f9c170"/><path d="m368.019531 384h48v56c0 13.253906-10.746093 24-24 24-13.257812 0-24-10.746094-24-24zm0 0" fill="#f9c170"/><path d="m320.019531 200h64v64c0 17.671875-14.328125 32-32 32-17.675781 0-32-14.328125-32-32zm0 0" fill="#fd412d"/><path d="m344.019531 256v-56h-24v64c-.042969 12.625 7.34375 24.09375 18.855469 29.277344s24.992188 3.117187 34.421875-5.277344c-16.601563-1.417969-29.339844-15.335938-29.277344-32zm0 0" fill="#d6332b"/><path d="m296.019531 120h32v48h-32zm0 0" fill="#70dda8"/><path d="m376.019531 120h32v48h-32zm0 0" fill="#70dda8"/><path d="m365.136719 360c-19.027344-.007812-37.0625-8.484375-49.214844-23.125s-17.160156-33.929688-13.664063-52.636719l9.761719-52.238281v-64h-32v88l-24 128h192l-4.480469-24zm0 0" fill="#40bf7c"/><path d="m408.019531 152c-13.257812 0-24-10.746094-24-24v-8h-8v48h32zm0 0" fill="#40bf7c"/><path d="m328.019531 152c-13.257812 0-24-10.746094-24-24v-8h-8v48h32zm0 0" fill="#40bf7c"/><path d="m408.019531 456c-13.257812 0-24-10.746094-24-24v-32h32v-16h-48v56c-.015625 9.964844 6.128907 18.902344 15.441407 22.457031 9.308593 3.554688 19.847656.984375 26.476562-6.457031zm0 0" fill="#faa108"/><path d="m328.019531 456c-13.257812 0-24-10.746094-24-24v-32h32v-16h-48v56c-.015625 9.964844 6.128907 18.902344 15.441407 22.457031 9.308593 3.554688 19.847656.984375 26.476562-6.457031zm0 0" fill="#faa108"/></svg>