<?xml version="1.0" encoding="utf-8"?>
<!-- Generator: Adobe Illustrator 23.0.3, SVG Export Plug-In . SVG Version: 6.00 Build 0)  -->
<svg version="1.1" xmlns="http://www.w3.org/2000/svg" xmlns:xlink="http://www.w3.org/1999/xlink" x="0px" y="0px"
	 viewBox="0 0 1024 240" style="enable-background:new 0 0 1024 240;" xml:space="preserve">
<style type="text/css">
	.st0{display:none;fill-rule:evenodd;clip-rule:evenodd;fill:#101D3F;}
	.st1{fill-rule:evenodd;clip-rule:evenodd;fill:#A8D8F8;}
	.st2{fill-rule:evenodd;clip-rule:evenodd;fill:#68AEE5;}
	.st3{fill-rule:evenodd;clip-rule:evenodd;fill:#101D3F;}
	.st4{fill-rule:evenodd;clip-rule:evenodd;fill:#FFFFFF;}
	.st5{fill:#FFFFFF;}
</style>
<g id="bg">
</g>
<g id="Layer_1">
	<g>
		<path class="st0" d="M374.81,209.16c0.4,0,0.82-0.08,1.24-0.23c0.42-0.16,0.81-0.4,1.17-0.73c0.36-0.33,0.65-0.76,0.86-1.27
			c0.22-0.52,0.33-1.13,0.33-1.82c0-1-0.24-1.88-0.72-2.62c-0.48-0.75-1.33-1.12-2.55-1.12h-5.71v7.79H374.81L374.81,209.16z
			 M369.43,215.81v9.03h5.24c1.56,0,2.72-0.4,3.48-1.19c0.76-0.79,1.14-1.87,1.14-3.22c0-1.49-0.41-2.63-1.24-3.42
			c-0.83-0.8-1.86-1.19-3.11-1.19H369.43L369.43,215.81z M366.54,231.43c-1.03,0-1.9-0.37-2.6-1.11c-0.7-0.75-1.05-1.62-1.05-2.62
			v-29.12c0-1.07,0.36-1.97,1.08-2.67c0.72-0.71,1.57-1.06,2.57-1.06h7.9c1.74,0,3.28,0.28,4.61,0.85c1.32,0.57,2.42,1.33,3.3,2.28
			c0.88,0.95,1.53,2.04,1.97,3.27c0.43,1.23,0.65,2.48,0.65,3.76c0,1.83-0.47,3.33-1.4,4.49c-0.93,1.16-2.11,2.12-3.51,2.88
			c0.72,0.31,1.43,0.7,2.13,1.17c0.7,0.47,1.33,1.03,1.87,1.69c0.55,0.66,0.98,1.42,1.31,2.28c0.33,0.87,0.49,1.87,0.49,3.01
			c0,1.52-0.26,2.94-0.79,4.26c-0.53,1.32-1.29,2.47-2.29,3.45c-1,0.99-2.21,1.77-3.65,2.34c-1.43,0.57-3.05,0.85-4.86,0.85H366.54
			L366.54,231.43z M424.15,197.69c0-0.9,0.32-1.68,0.96-2.34c0.64-0.66,1.41-0.99,2.32-0.99c0.91,0,1.67,0.33,2.32,0.99
			c0.64,0.66,0.96,1.43,0.96,2.34v30.89c0,0.9-0.32,1.68-0.96,2.34c-0.64,0.66-1.41,0.99-2.32,0.99c-0.9,0-1.68-0.33-2.32-0.99
			c-0.64-0.66-0.96-1.44-0.96-2.34V197.69L424.15,197.69z M406.47,207.24h3.51c1.81,0,3.44,0.27,4.91,0.8
			c1.47,0.54,2.72,1.31,3.76,2.31c1.04,1,1.85,2.26,2.41,3.76c0.56,1.5,0.84,3.21,0.84,5.11c0,1.59-0.21,3.12-0.63,4.6
			c-0.42,1.47-1.1,2.77-2.03,3.89c-0.94,1.12-2.17,2.03-3.7,2.7c-1.53,0.68-3.38,1.01-5.57,1.01h-6.41c-0.5,0-0.97-0.1-1.4-0.31
			c-0.44-0.21-0.82-0.47-1.15-0.8c-0.33-0.33-0.59-0.72-0.8-1.17c-0.2-0.45-0.3-0.93-0.3-1.46V197.8c0-0.94,0.33-1.74,0.98-2.42
			c0.66-0.68,1.42-1.01,2.29-1.01c0.91,0,1.68,0.35,2.32,1.04c0.64,0.69,0.96,1.49,0.96,2.39V207.24L406.47,207.24z M406.47,213.83
			v11h3.51c1.09,0,1.99-0.16,2.69-0.49c0.7-0.33,1.25-0.75,1.64-1.27c0.39-0.52,0.66-1.11,0.82-1.77c0.15-0.66,0.24-1.33,0.24-2.02
			c0-1.87-0.46-3.24-1.36-4.13c-0.9-0.88-2.24-1.32-4.02-1.32H406.47L406.47,213.83z M466.47,228.05c0,0.94-0.32,1.73-0.96,2.39
			c-0.64,0.66-1.41,0.99-2.32,0.99h-12.4c-0.56,0-1.1-0.06-1.64-0.18c-0.53-0.12-1-0.32-1.4-0.6c-0.4-0.28-0.73-0.65-0.96-1.14
			c-0.23-0.49-0.35-1.07-0.35-1.77v-29.22c0-0.45,0.09-0.9,0.28-1.35c0.19-0.45,0.44-0.85,0.75-1.19c0.31-0.35,0.69-0.62,1.12-0.83
			c0.43-0.21,0.92-0.31,1.45-0.31h12.68c0.91,0,1.67,0.33,2.32,1.01c0.64,0.67,0.96,1.46,0.96,2.36c0,0.93-0.32,1.7-0.96,2.31
			c-0.64,0.6-1.41,0.9-2.32,0.9H453v8.36h8.84c0.81,0,1.55,0.31,2.22,0.93c0.67,0.62,1,1.4,1,2.34c0,0.93-0.31,1.72-0.93,2.36
			c-0.62,0.64-1.39,0.96-2.29,0.96H453v8.46h10.19c0.87,0,1.64,0.31,2.29,0.93C466.14,226.4,466.47,227.16,466.47,228.05
			L466.47,228.05z M500.47,220.89c0,1.45-0.26,2.84-0.79,4.15c-0.53,1.31-1.29,2.48-2.29,3.5c-1,1.02-2.21,1.83-3.63,2.44
			c-1.42,0.61-3,0.91-4.75,0.91c-1.03,0-2.17-0.11-3.41-0.34c-1.25-0.23-2.41-0.57-3.48-1.04c-1.08-0.47-1.98-1.04-2.72-1.71
			c-0.73-0.68-1.1-1.48-1.1-2.42c0-0.86,0.3-1.6,0.91-2.2c0.61-0.61,1.32-0.91,2.13-0.91c0.5,0,0.99,0.12,1.47,0.36
			c0.48,0.24,1,0.51,1.54,0.81c0.55,0.29,1.15,0.56,1.82,0.81c0.67,0.24,1.46,0.36,2.36,0.36c1.78,0,3.12-0.48,4.04-1.43
			c0.92-0.95,1.38-2.1,1.38-3.45c0-0.87-0.19-1.58-0.56-2.16c-0.38-0.57-0.88-1.03-1.5-1.37c-0.63-0.35-1.34-0.61-2.15-0.78
			c-0.81-0.17-1.67-0.29-2.57-0.36c-0.43-0.04-0.87-0.09-1.31-0.16c-0.44-0.07-0.83-0.21-1.17-0.42c-0.34-0.21-0.61-0.52-0.82-0.96
			c-0.2-0.43-0.3-1.03-0.3-1.79c0-0.73,0.1-1.3,0.3-1.71c0.2-0.41,0.46-0.73,0.77-0.93c0.31-0.21,0.66-0.34,1.05-0.39
			c0.39-0.05,0.76-0.08,1.1-0.08c0.78-0.03,1.56-0.16,2.34-0.36c0.78-0.21,1.47-0.51,2.08-0.91c0.61-0.4,1.1-0.89,1.47-1.48
			c0.38-0.59,0.56-1.3,0.56-2.13c0-0.48-0.08-0.97-0.23-1.45c-0.15-0.49-0.4-0.92-0.75-1.32c-0.34-0.4-0.8-0.72-1.36-0.96
			c-0.56-0.24-1.26-0.36-2.1-0.36c-1.31,0-2.51,0.28-3.6,0.83c-0.53,0.28-1.07,0.6-1.61,0.96c-0.55,0.36-1.15,0.54-1.8,0.54
			c-0.75,0-1.44-0.28-2.06-0.85c-0.62-0.57-0.93-1.29-0.93-2.15c0-0.87,0.33-1.64,1-2.34c0.67-0.69,1.52-1.28,2.55-1.77
			c1.03-0.48,2.15-0.85,3.37-1.11c1.22-0.26,2.37-0.39,3.46-0.39c1.71,0,3.23,0.31,4.54,0.93c1.31,0.63,2.4,1.43,3.27,2.42
			c0.88,0.99,1.53,2.09,1.97,3.32c0.43,1.23,0.65,2.43,0.65,3.61c0,1.77-0.45,3.27-1.33,4.52c-0.89,1.24-2.19,2.35-3.9,3.32
			c1.87,0.83,3.35,1.91,4.44,3.24C499.93,217.06,500.47,218.78,500.47,220.89L500.47,220.89z M524.97,213.63
			c-0.1,2.25-0.31,4.32-0.66,6.2c-0.34,1.89-0.83,3.56-1.45,5.01h9.73v-23.46h-7.2L524.97,213.63L524.97,213.63z M515.81,224.84
			c0.78-1,1.38-2.47,1.8-4.39c0.42-1.92,0.7-4.23,0.82-6.93l0.7-14.95c0.06-1.01,0.44-1.88,1.12-2.62c0.68-0.74,1.53-1.11,2.52-1.11
			h12.72c0.5,0,0.96,0.1,1.4,0.31c0.44,0.21,0.82,0.47,1.14,0.81c0.33,0.33,0.59,0.72,0.8,1.17c0.2,0.45,0.31,0.93,0.31,1.45v26.26
			c1,0,1.76,0.39,2.29,1.17c0.53,0.78,0.8,1.67,0.8,2.67v6.64c0,0.94-0.32,1.72-0.96,2.36c-0.64,0.64-1.43,0.96-2.36,0.96
			c-0.91,0-1.67-0.32-2.29-0.96c-0.62-0.64-0.94-1.42-0.94-2.36v-3.89h-16.65v3.89c0,0.94-0.31,1.72-0.93,2.36
			c-0.62,0.64-1.39,0.96-2.29,0.96c-0.91,0-1.67-0.32-2.29-0.96c-0.62-0.64-0.94-1.42-0.94-2.36v-6.64c0-1,0.29-1.89,0.87-2.67
			C514.02,225.23,514.81,224.84,515.81,224.84L515.81,224.84z M578.85,228.52c0,0.9-0.32,1.69-0.96,2.36
			c-0.64,0.68-1.41,1.01-2.32,1.01c-0.87,0-1.64-0.34-2.29-1.01c-0.66-0.67-0.98-1.46-0.98-2.36v-12.09h-9.96v12.09
			c0,0.9-0.32,1.69-0.96,2.36c-0.64,0.68-1.41,1.01-2.32,1.01c-0.9,0-1.67-0.34-2.31-1.01c-0.64-0.67-0.96-1.46-0.96-2.36v-30.83
			c0-0.9,0.32-1.68,0.96-2.34c0.64-0.66,1.41-0.99,2.31-0.99c0.91,0,1.68,0.33,2.32,0.99c0.64,0.66,0.96,1.43,0.96,2.34v12.09h9.96
			v-12.09c0-0.9,0.33-1.68,0.98-2.34c0.65-0.66,1.42-0.99,2.29-0.99c0.87,0,1.64,0.33,2.29,0.99c0.65,0.66,0.98,1.43,0.98,2.34
			V228.52L578.85,228.52z M598.81,229.46c-0.25,0.76-0.68,1.36-1.31,1.79c-0.63,0.43-1.22,0.65-1.78,0.65
			c-0.91,0-1.69-0.3-2.36-0.91c-0.67-0.61-1-1.41-1-2.41c0-0.14,0.01-0.33,0.02-0.57c0.02-0.24,0.05-0.43,0.12-0.57l9.12-29.54
			c0.31-1,0.74-1.84,1.29-2.52c0.55-0.68,1.38-1.01,2.5-1.01c1.12,0,1.96,0.33,2.5,0.99c0.54,0.66,0.99,1.51,1.33,2.54l9.12,29.54
			c0.06,0.14,0.1,0.33,0.12,0.57c0.02,0.24,0.02,0.43,0.02,0.57c0,1-0.32,1.81-0.96,2.41c-0.64,0.61-1.44,0.91-2.41,0.91
			c-0.62,0-1.25-0.23-1.87-0.68c-0.63-0.45-1.06-1.04-1.31-1.76l-1.64-5.24h-9.96L598.81,229.46L598.81,229.46z M606.25,209.42
			c-0.22-0.76-0.39-1.6-0.51-2.52c-0.12-0.92-0.23-1.77-0.33-2.57c-0.09,0.8-0.2,1.65-0.33,2.57c-0.13,0.92-0.3,1.76-0.51,2.52
			l-2.48,8.88h6.55L606.25,209.42L606.25,209.42z M631.83,205.84c0-1.35,0.2-2.68,0.58-4c0.39-1.32,1.03-2.49,1.92-3.53
			c0.89-1.04,2.07-1.88,3.55-2.52c1.48-0.64,3.33-0.96,5.54-0.96h7.2c0.47,0,0.92,0.1,1.36,0.31c0.43,0.21,0.82,0.47,1.14,0.81
			c0.33,0.33,0.59,0.72,0.77,1.17c0.19,0.45,0.28,0.93,0.28,1.45v29.9c0,0.94-0.31,1.74-0.94,2.41c-0.62,0.68-1.38,1.01-2.29,1.01
			c-0.44,0-0.86-0.1-1.26-0.29c-0.4-0.19-0.76-0.44-1.07-0.75c-0.31-0.31-0.56-0.67-0.73-1.09c-0.17-0.42-0.26-0.85-0.26-1.3v-11.89
			h-2.29l-7.81,13.65c-0.62,1.07-1.54,1.61-2.76,1.61c-0.31,0-0.66-0.09-1.05-0.26c-0.39-0.17-0.76-0.39-1.12-0.67
			c-0.36-0.28-0.66-0.61-0.89-1.01c-0.23-0.4-0.35-0.82-0.35-1.27c0-0.28,0.05-0.62,0.14-1.04c0.1-0.42,0.23-0.78,0.42-1.09
			l6.36-10.69c-2.03-0.73-3.61-1.92-4.75-3.58C632.4,210.57,631.83,208.44,631.83,205.84L631.83,205.84z M638.38,205.84
			c0,1.35,0.38,2.38,1.15,3.11c0.76,0.73,1.88,1.09,3.34,1.09h4.77v-8.62h-4.49c-0.97,0-1.76,0.13-2.39,0.39
			c-0.62,0.26-1.11,0.6-1.45,1.01c-0.34,0.42-0.58,0.88-0.73,1.4C638.45,204.75,638.38,205.29,638.38,205.84L638.38,205.84z
			 M697.54,229.82v-0.05c-0.25,0.49-0.61,0.96-1.08,1.43c-0.47,0.47-1.11,0.7-1.92,0.7c-0.84,0-1.58-0.35-2.22-1.04
			c-0.64-0.69-0.96-1.47-0.96-2.34c0-0.28,0.05-0.59,0.14-0.93c0.09-0.35,0.2-0.63,0.33-0.83l8.09-14.33l-7.44-13.03
			c-0.25-0.55-0.37-1.14-0.37-1.77c0-0.83,0.31-1.58,0.93-2.26c0.63-0.68,1.36-1.01,2.2-1.01c0.72,0,1.35,0.24,1.89,0.73
			c0.55,0.48,0.99,1.04,1.34,1.66l5.29,9.65l5.28-9.65c0.31-0.49,0.73-1,1.26-1.56c0.53-0.55,1.2-0.83,2.01-0.83
			c0.81,0,1.53,0.33,2.15,0.99c0.63,0.66,0.94,1.43,0.94,2.34c0,0.28-0.04,0.56-0.12,0.86c-0.08,0.29-0.18,0.58-0.31,0.85
			l-7.39,13.03l8.09,14.33c0.12,0.21,0.23,0.49,0.33,0.83c0.09,0.35,0.14,0.65,0.14,0.93c0,0.87-0.32,1.65-0.96,2.34
			c-0.64,0.69-1.36,1.04-2.17,1.04s-1.45-0.23-1.92-0.68c-0.47-0.45-0.84-0.92-1.12-1.4l-6.22-11.42L697.54,229.82L697.54,229.82z
			 M732.94,231.9c-1.03,0-1.86-0.35-2.5-1.04c-0.64-0.69-0.96-1.52-0.96-2.49v-30.63c0-0.9,0.31-1.69,0.93-2.36
			c0.63-0.68,1.39-1.01,2.29-1.01c0.9,0,1.68,0.33,2.34,1.01c0.65,0.67,0.98,1.46,0.98,2.36v19.62c1.06-2.08,2.04-3.97,2.93-5.68
			c0.89-1.71,1.74-3.38,2.57-4.98c0.83-1.61,1.67-3.24,2.52-4.91c0.86-1.66,1.8-3.49,2.83-5.5c0.34-0.59,0.8-1.06,1.38-1.4
			c0.58-0.35,1.18-0.52,1.8-0.52c1,0,1.82,0.33,2.45,1.01c0.64,0.67,0.96,1.51,0.96,2.52v30.63c0,0.9-0.31,1.69-0.94,2.36
			c-0.62,0.68-1.39,1.01-2.29,1.01c-0.91,0-1.69-0.34-2.34-1.01c-0.66-0.67-0.98-1.46-0.98-2.36v-19.41l-10.85,20.97
			c-0.31,0.55-0.76,0.99-1.33,1.32C734.16,231.73,733.56,231.9,732.94,231.9L732.94,231.9z M798.92,228.63
			c0,0.9-0.32,1.67-0.96,2.31c-0.64,0.64-1.39,0.96-2.27,0.96c-0.9,0-1.69-0.32-2.34-0.96c-0.65-0.64-0.98-1.41-0.98-2.31v-17.86
			l-5.33,11.63c-0.31,0.69-0.74,1.19-1.29,1.51c-0.55,0.31-1.14,0.47-1.8,0.47c-0.63,0-1.21-0.15-1.75-0.47
			c-0.54-0.31-0.97-0.81-1.29-1.51l-5.33-11.63v17.86c0,0.9-0.33,1.67-1.01,2.31c-0.67,0.64-1.46,0.96-2.36,0.96
			c-0.91,0-1.66-0.32-2.27-0.96c-0.6-0.64-0.91-1.41-0.91-2.31V197.8c0-1.01,0.32-1.83,0.96-2.47c0.64-0.64,1.44-0.96,2.41-0.96
			c1.56,0,2.65,0.67,3.27,2.03l8.32,18.32l8.33-18.38c0.34-0.76,0.8-1.28,1.38-1.56c0.58-0.28,1.19-0.41,1.85-0.41
			c0.96,0,1.77,0.33,2.41,1.01c0.64,0.67,0.96,1.48,0.96,2.42V228.63L798.92,228.63z M829.51,217.78c-0.81,0.48-1.61,0.8-2.41,0.96
			c-0.8,0.15-1.62,0.23-2.46,0.23c-3.46,0-6.16-1.03-8.11-3.09c-1.95-2.06-2.92-5.03-2.92-8.9v-9.18c0-0.9,0.32-1.7,0.96-2.39
			c0.64-0.69,1.41-1.04,2.32-1.04c0.87,0,1.64,0.33,2.29,1.01c0.65,0.67,0.98,1.48,0.98,2.42v9.13c0,1.94,0.4,3.33,1.19,4.18
			c0.79,0.85,1.99,1.27,3.58,1.27c1.53,0,3.05-0.43,4.58-1.3V197.8c0-0.9,0.32-1.7,0.96-2.39c0.64-0.69,1.41-1.04,2.32-1.04
			c0.87,0,1.64,0.33,2.29,1.01c0.66,0.67,0.99,1.48,0.99,2.42v30.67c0,0.94-0.33,1.74-0.99,2.41c-0.65,0.68-1.42,1.01-2.29,1.01
			c-0.9,0-1.68-0.35-2.32-1.04c-0.64-0.69-0.96-1.49-0.96-2.39V217.78L829.51,217.78z M855.28,231.9c-1.03,0-1.86-0.35-2.5-1.04
			c-0.64-0.69-0.96-1.52-0.96-2.49v-30.63c0-0.9,0.31-1.69,0.93-2.36c0.63-0.68,1.39-1.01,2.29-1.01c0.91,0,1.69,0.33,2.34,1.01
			c0.65,0.67,0.98,1.46,0.98,2.36v19.62c1.06-2.08,2.03-3.97,2.92-5.68c0.89-1.71,1.74-3.38,2.57-4.98
			c0.83-1.61,1.67-3.24,2.52-4.91c0.86-1.66,1.8-3.49,2.83-5.5c0.34-0.59,0.8-1.06,1.38-1.4c0.58-0.35,1.18-0.52,1.8-0.52
			c1,0,1.82,0.33,2.45,1.01c0.64,0.67,0.96,1.51,0.96,2.52v30.63c0,0.9-0.31,1.69-0.94,2.36c-0.62,0.68-1.39,1.01-2.29,1.01
			c-0.91,0-1.68-0.34-2.34-1.01c-0.66-0.67-0.98-1.46-0.98-2.36v-19.41l-10.85,20.97c-0.31,0.55-0.76,0.99-1.33,1.32
			C856.5,231.73,855.9,231.9,855.28,231.9L855.28,231.9z M896.8,218.24c0,1.11,0.1,2.11,0.28,3.01c0.19,0.9,0.5,1.66,0.93,2.28
			c0.44,0.63,1.01,1.11,1.73,1.46c0.72,0.35,1.61,0.52,2.67,0.52c0.75,0,1.43-0.1,2.06-0.31c0.62-0.21,1.23-0.52,1.82-0.93
			l0.47-0.31c0.31-0.21,0.59-0.39,0.84-0.55s0.64-0.23,1.17-0.23c0.91,0,1.65,0.31,2.22,0.94c0.58,0.62,0.87,1.35,0.87,2.18
			c0,0.76-0.27,1.48-0.82,2.15c-0.55,0.67-1.27,1.26-2.18,1.77c-0.9,0.5-1.93,0.9-3.09,1.19c-1.15,0.3-2.35,0.44-3.6,0.44
			c-2.06,0-3.84-0.32-5.33-0.96c-1.5-0.64-2.74-1.56-3.72-2.75c-0.98-1.19-1.71-2.63-2.17-4.31c-0.47-1.68-0.7-3.54-0.7-5.58v-10.27
			c0-2.04,0.24-3.9,0.7-5.58c0.47-1.68,1.19-3.11,2.17-4.31c0.98-1.19,2.22-2.11,3.72-2.75c1.5-0.64,3.27-0.96,5.33-0.96
			c1.25,0,2.45,0.15,3.6,0.44c1.15,0.29,2.18,0.69,3.09,1.19c0.9,0.5,1.63,1.09,2.18,1.77c0.54,0.67,0.82,1.39,0.82,2.16
			c0,0.83-0.29,1.56-0.87,2.18c-0.58,0.62-1.32,0.93-2.22,0.93c-0.53,0-0.92-0.08-1.17-0.23c-0.25-0.15-0.53-0.34-0.84-0.55
			l-0.47-0.31c-0.59-0.41-1.2-0.73-1.82-0.93c-0.63-0.21-1.31-0.31-2.06-0.31c-1.06,0-1.95,0.17-2.67,0.52
			c-0.72,0.35-1.29,0.83-1.73,1.45c-0.44,0.62-0.75,1.38-0.93,2.28c-0.19,0.9-0.28,1.91-0.28,3.01V218.24L896.8,218.24z
			 M932.95,201.43H928c-0.93,0-1.71-0.32-2.34-0.96c-0.62-0.64-0.93-1.41-0.93-2.31c0-0.35,0.09-0.72,0.26-1.12
			c0.17-0.4,0.4-0.76,0.7-1.09c0.3-0.33,0.64-0.6,1.03-0.81c0.39-0.21,0.82-0.31,1.29-0.31h16.46c0.84,0,1.61,0.32,2.29,0.96
			c0.69,0.64,1.03,1.43,1.03,2.36c0,0.9-0.33,1.67-0.98,2.31c-0.65,0.64-1.43,0.96-2.34,0.96h-4.96v27.15c0,0.9-0.32,1.68-0.96,2.34
			c-0.64,0.66-1.41,0.99-2.31,0.99c-0.91,0-1.68-0.33-2.32-0.99s-0.96-1.44-0.96-2.34V201.43L932.95,201.43z M967.79,209.79h0.56
			l9.35-13.91c0.68-1,1.59-1.5,2.71-1.5c0.5,0,0.94,0.11,1.33,0.33c0.39,0.23,0.73,0.5,1.01,0.83c0.28,0.33,0.49,0.7,0.63,1.12
			s0.21,0.81,0.21,1.19c0,0.28-0.03,0.55-0.09,0.81c-0.06,0.26-0.2,0.58-0.42,0.96l-9.21,13.5l9.21,13.55
			c0.22,0.38,0.36,0.7,0.42,0.96c0.06,0.26,0.09,0.53,0.09,0.81c0,0.38-0.07,0.78-0.21,1.19s-0.35,0.79-0.63,1.12
			c-0.28,0.33-0.62,0.61-1.01,0.83c-0.39,0.23-0.83,0.34-1.33,0.34c-1.12,0-2.03-0.5-2.71-1.51l-9.4-13.96h-0.51v12.09
			c0,0.9-0.32,1.69-0.96,2.36c-0.64,0.68-1.41,1.01-2.32,1.01c-0.9,0-1.67-0.34-2.31-1.01c-0.64-0.67-0.96-1.46-0.96-2.36v-30.83
			c0-0.9,0.32-1.68,0.96-2.34c0.64-0.66,1.41-0.99,2.31-0.99c0.91,0,1.68,0.33,2.32,0.99c0.64,0.66,0.96,1.43,0.96,2.34V209.79
			L967.79,209.79z M1001.28,229.46c-0.25,0.76-0.68,1.36-1.31,1.79c-0.63,0.43-1.22,0.65-1.78,0.65c-0.9,0-1.69-0.3-2.36-0.91
			c-0.67-0.61-1-1.41-1-2.41c0-0.14,0.01-0.33,0.02-0.57c0.02-0.24,0.05-0.43,0.12-0.57l9.12-29.54c0.31-1,0.74-1.84,1.29-2.52
			c0.55-0.68,1.38-1.01,2.5-1.01c1.12,0,1.96,0.33,2.5,0.99c0.54,0.66,0.99,1.51,1.33,2.54l9.12,29.54c0.06,0.14,0.1,0.33,0.12,0.57
			c0.02,0.24,0.02,0.43,0.02,0.57c0,1-0.32,1.81-0.96,2.41c-0.64,0.61-1.44,0.91-2.41,0.91c-0.62,0-1.25-0.23-1.87-0.68
			c-0.63-0.45-1.06-1.04-1.31-1.76l-1.64-5.24h-9.96L1001.28,229.46L1001.28,229.46z M1008.71,209.42c-0.22-0.76-0.39-1.6-0.51-2.52
			c-0.12-0.92-0.23-1.77-0.33-2.57c-0.09,0.8-0.2,1.65-0.33,2.57c-0.13,0.92-0.3,1.76-0.51,2.52l-2.48,8.88h6.55L1008.71,209.42z"/>
		<g>
			<polygon class="st1" points="85.4,155.34 82.85,127.06 73.74,100.89 55.51,75.69 34,56.3 9.38,43.89 3.76,31.29 12.09,19.47 
				23.91,17.91 47.18,30.71 60.17,40.4 59.2,26.44 71.02,17.33 85.18,23.34 99.71,37.3 103.2,22.37 114.26,17.72 126.85,22.95 
				135.58,35.75 139.84,22.18 151.09,17.53 161.94,22.37 168.73,33.62 175.13,20.82 187.53,17.72 197.23,24.51 200.72,32.84 
				207.41,20.82 216.61,17.82 226.02,20.92 232.42,31 237.36,21.31 250.74,17.82 258.79,21.89 264.21,31.68 270.9,20.04 
				281.95,18.3 291.74,24.41 294.36,29.35 302.21,19.27 313.94,17.72 322.57,24.31 333.23,60.56 341.47,106.9 343.41,145.67 
				343.32,154.29 			"/>
			<polygon class="st2" points="85.4,155.34 344.49,155.34 343.43,173.66 338.59,182.58 319.68,186.89 103.26,186.89 91.99,182.79 
				84.87,168.96 			"/>
			<path class="st3" d="M226.37,152.74c0.03-1.17,0.06-3.36,0.02-6.39l0-0.14c-0.65-19.69-5-72.96-32.21-119.65
				c-1.59-2.75-4.15-4.6-7-5.35c-2.85-0.76-6-0.43-8.75,1.16c-2.75,1.59-4.6,4.15-5.35,7c-0.5,1.89-0.53,3.92-0.03,5.87
				c14.84,25.19,22.48,52.37,26.39,74.4c3.79,21.32,4.09,37.93,4.08,43.11h-5.78l0.02-1.13c-0.04-5.96-0.52-21.34-4.01-40.99
				c-4.48-25.23-13.94-57.36-33.83-85.01c-1.85-2.57-4.59-4.16-7.49-4.63c-2.91-0.47-6,0.16-8.58,2.02
				c-2.57,1.85-4.16,4.59-4.63,7.49c-0.47,2.91,0.16,6,2.01,8.57c19.86,27.61,27.97,60.36,31.27,83.76
				c2.19,14.7,2.35,25.69,2.32,29.92h-5.84c0.03-2.94-0.03-14.19-2.2-29.47c-4.02-26.77-14.93-66.1-44.27-98.65
				c-2.13-2.37-5.02-3.65-7.97-3.8c-2.95-0.16-5.96,0.82-8.33,2.95c-2.37,2.13-3.65,5.02-3.8,7.97c-0.13,2.41,0.51,4.87,1.9,6.98
				c1.26,1.44,2.48,2.9,3.67,4.36c30.17,35.49,36.5,79.16,37.77,99.3c0.34,4.72,0.41,8.29,0.4,10.38h-5.87
				c0.02-0.92,0.06-2.96-0.02-5.91c-0.58-12.66-3.42-39.28-16.45-67.41c-9-19.44-22.89-39.58-44.29-56.21
				c-2.51-1.95-5.59-2.7-8.53-2.34c-2.93,0.36-5.71,1.85-7.67,4.37c-1.95,2.51-2.7,5.59-2.34,8.53c0.29,2.34,1.31,4.6,2.99,6.41
				c0.98,0.81,1.93,1.62,2.88,2.45c17.4,13.95,28.83,30.64,36.33,46.77c14.11,30.35,14.26,58.87,14.19,63.34h-5.76
				c0.06-8.66-1.24-43.47-23.88-77.66C74.68,55.37,54.5,35.89,23.34,21.82c-2.9-1.31-6.07-1.31-8.83-0.27
				c-2.76,1.04-5.12,3.14-6.43,6.05c-1.31,2.9-1.31,6.07-0.27,8.83c1.04,2.76,3.14,5.12,6.05,6.43
				c26.06,11.76,43.06,27.91,54.14,44.23c20.81,30.64,20.68,61.94,20.58,65.66H82.8c0.05-1.15,1.12-31.98-19.57-62.43
				c-10.55-15.53-26.79-30.94-51.74-42.2c-4.35-1.96-7.5-5.51-9.07-9.65c-1.56-4.13-1.55-8.87,0.41-13.23
				c1.96-4.35,5.51-7.5,9.65-9.07c4.13-1.56,8.87-1.55,13.23,0.41c11.11,5.01,20.88,10.7,29.47,16.83
				c-0.25-4.06,0.92-8.22,3.61-11.69c2.93-3.77,7.13-6.01,11.53-6.56c4.39-0.55,9,0.58,12.77,3.51c4.92,3.83,9.46,7.83,13.65,11.97
				c0.41-4.14,2.31-8.16,5.64-11.16c3.55-3.19,8.06-4.65,12.48-4.41c4.42,0.23,8.76,2.15,11.96,5.7c2.41,2.67,4.69,5.38,6.86,8.13
				c0.84-4.11,3.17-7.92,6.83-10.57c3.86-2.78,8.5-3.73,12.86-3.03c4.36,0.71,8.45,3.09,11.24,6.95c1.1,1.53,2.17,3.07,3.21,4.63
				c1.29-3.87,3.94-7.3,7.73-9.5c4.13-2.39,8.84-2.88,13.11-1.75c4.28,1.14,8.12,3.91,10.51,8.04l1.31,2.29
				c1.52-3.81,4.37-7.1,8.31-9.07c4.26-2.12,8.99-2.32,13.17-0.92c4.2,1.4,7.87,4.4,9.99,8.65l0.41,0.83
				c1.68-3.86,4.77-7.13,8.95-8.95c4.37-1.91,9.11-1.86,13.21-0.25c3.93,1.55,7.32,4.53,9.27,8.62c1.86-3.88,5.15-7.08,9.5-8.71
				c4.47-1.68,9.2-1.39,13.22,0.43c3.4,1.54,6.31,4.18,8.15,7.65c2-3.77,5.4-6.82,9.78-8.28c4.53-1.52,9.24-1.06,13.19,0.92
				c3.95,1.97,7.16,5.45,8.67,9.98c19.64,58.29,20.67,116.77,20.71,125.89h-5.76c-0.03-9.04-1.06-66.63-20.4-124.06
				c-1-3-3.14-5.32-5.78-6.64c-2.64-1.32-5.79-1.63-8.8-0.63c-3,1-5.32,3.15-6.64,5.78c-1.17,2.34-1.54,5.07-0.92,7.75
				c18.63,54.29,19.53,108.28,19.55,117.79h-5.87c-0.04-8.57-1.02-62.05-18.83-114.92c-0.13-0.37-0.24-0.75-0.34-1.12
				c-0.97-2.81-1.98-5.62-3.04-8.42c-1.12-2.97-3.34-5.22-6.02-6.43c-2.69-1.22-5.85-1.41-8.82-0.29c-2.98,1.12-5.22,3.34-6.43,6.02
				c-1.22,2.69-1.41,5.85-0.29,8.82c4.39,11.58,7.86,23.24,10.61,34.48l0.05,0.21l0.32,1.33l0.02,0.08
				c9.51,39.41,9.96,72.93,9.94,80.24h-5.8c0.01-6.22-0.41-42.19-10.8-83.19c-3.49-13.61-8.09-27.83-14.17-41.81
				c-1.27-2.91-3.6-5.03-6.35-6.11c-2.75-1.08-5.91-1.11-8.82,0.16c-2.91,1.27-5.03,3.6-6.11,6.35c-1.08,2.75-1.11,5.91,0.16,8.82
				c9.45,21.73,15.04,44.07,18.35,63.33l0.13,0.77l0.06,0.38c4.44,25.95,4.71,45.94,4.69,51.33H255c0.03-4.58-0.12-25.39-4.79-52.17
				c-3.91-22.09-10.91-48.34-23.43-73.38c-1.43-2.84-3.86-4.84-6.64-5.76c-2.79-0.93-5.95-0.79-8.79,0.62
				c-2.84,1.43-4.84,3.86-5.76,6.64c-0.68,2.04-0.79,4.28-0.24,6.45c25.98,52.02,26.94,108,26.9,117.6H226.37L226.37,152.74z
				 M82.8,155.2v-2.46C82.74,153.57,82.74,154.39,82.8,155.2z"/>
			<path class="st3" d="M152.17,182.21h125.45h51.59c3.27,0,6.25-1.34,8.41-3.5c2.16-2.16,3.5-5.14,3.5-8.41V158.3h-63.51H152.17
				H88.66v11.99c0,3.27,1.34,6.25,3.5,8.41c2.16,2.16,5.14,3.5,8.41,3.5H152.17L152.17,182.21z M152.17,152.44h125.45H347v17.85
				c0,9.78-8,17.78-17.78,17.78h-51.59H152.17h-51.59c-9.78,0-17.78-8-17.78-17.78v-17.85H152.17z"/>
			<path class="st3" d="M85.49,231.36c25.21,0,45.78-20.56,45.78-45.77c0-25.21-20.56-45.77-45.78-45.77
				c-25.21,0-45.77,20.56-45.77,45.77C39.71,210.8,60.28,231.36,85.49,231.36z"/>
			<path class="st1" d="M85.49,225.13c21.78,0,39.55-17.76,39.55-39.55c0-21.78-17.77-39.54-39.55-39.54
				c-21.78,0-39.55,17.77-39.55,39.54C45.94,207.37,63.71,225.13,85.49,225.13z"/>
			<path class="st3" d="M85.49,202.54c9.34,0,16.96-7.62,16.96-16.96c0-9.34-7.62-16.96-16.96-16.96c-9.34,0-16.96,7.62-16.96,16.96
				C68.53,194.93,76.15,202.54,85.49,202.54z"/>
			<path class="st4" d="M85.49,196.7c6.12,0,11.11-4.99,11.11-11.11c0-6.12-4.99-11.11-11.11-11.11c-6.12,0-11.11,4.99-11.11,11.11
				C74.38,191.71,79.37,196.7,85.49,196.7z"/>
			<path class="st3" d="M286.6,231.36c25.21,0,45.78-20.56,45.78-45.77c0-25.21-20.56-45.77-45.78-45.77
				c-25.21,0-45.77,20.56-45.77,45.77C240.82,210.8,261.39,231.36,286.6,231.36z"/>
			<path class="st1" d="M286.6,225.13c21.78,0,39.55-17.76,39.55-39.54c0-21.78-17.76-39.54-39.55-39.54
				c-21.78,0-39.54,17.76-39.54,39.54C247.05,207.37,264.82,225.13,286.6,225.13z"/>
			<path class="st3" d="M286.6,202.54c9.34,0,16.96-7.62,16.96-16.96c0-9.34-7.62-16.96-16.96-16.96c-9.34,0-16.96,7.62-16.96,16.96
				C269.64,194.93,277.26,202.54,286.6,202.54z"/>
			<path class="st4" d="M286.6,196.5c6.01,0,10.91-4.9,10.91-10.91c0-6.01-4.9-10.91-10.91-10.91c-6.01,0-10.91,4.9-10.91,10.91
				C275.69,191.6,280.59,196.5,286.6,196.5z"/>
			<path class="st3" d="M49.26,210.54H16.12c-1.62,0-2.93-1.31-2.93-2.93c0-1.62,1.31-2.93,2.93-2.93h33.14V210.54L49.26,210.54z
				 M85.49,231.32H6.69c-1.62,0-2.93-1.31-2.93-2.93c0-1.62,1.31-2.93,2.93-2.93h78.8V231.32z"/>
			<path class="st3" d="M250.37,210.54h-33.14c-1.62,0-2.93-1.31-2.93-2.93c0-1.62,1.31-2.93,2.93-2.93h33.14V210.54L250.37,210.54z
				 M286.6,231.32h-78.8c-1.62,0-2.93-1.31-2.93-2.93c0-1.62,1.31-2.93,2.93-2.93h78.8V231.32z"/>
			<path class="st3" d="M49.26,160.59H16.12c-1.62,0-2.93,1.31-2.93,2.93c0,1.62,1.31,2.93,2.93,2.93h33.14V160.59L49.26,160.59z
				 M85.49,139.81H6.69c-1.62,0-2.93,1.31-2.93,2.93c0,1.62,1.31,2.93,2.93,2.93h78.8V139.81z"/>
			<path class="st1" d="M367,74.1c0-6.19,0.73-11.81,2.16-16.82c1.43-5.01,3.64-9.33,6.57-12.89c2.93-3.57,6.68-6.33,11.21-8.25
				c4.53-1.91,9.9-2.88,16.1-2.88c3.63,0,7.15,0.37,10.57,1.12c3.42,0.75,6.44,1.74,9.05,2.96c2.61,1.22,4.73,2.68,6.32,4.33
				c1.59,1.65,2.4,3.44,2.4,5.37c0,1.49-0.54,2.81-1.6,3.92c-1.06,1.11-2.45,1.68-4.16,1.68c-1.17,0-2.12-0.25-2.8-0.72
				c-0.69-0.47-1.71-1.13-2.96-2c-4.71-3.28-10.03-4.96-16.01-4.96c-4.49,0-8.28,0.67-11.37,2c-3.1,1.33-5.59,3.29-7.45,5.84
				c-1.86,2.56-3.2,5.63-4,9.21c-0.8,3.58-1.2,7.62-1.2,12.09v34.28c0,4.47,0.41,8.53,1.2,12.09c0.79,3.57,2.14,6.65,4,9.21
				c1.87,2.56,4.35,4.51,7.45,5.85c3.1,1.34,6.89,2,11.37,2c5.98,0,11.27-1.73,16.01-4.97c1.34-0.91,2.4-1.52,3.04-2
				c0.64-0.48,1.55-0.72,2.72-0.72c1.71,0,3.11,0.57,4.16,1.68c1.05,1.12,1.6,2.43,1.6,3.92c0,1.92-0.8,3.71-2.4,5.37
				c-1.6,1.66-3.72,3.11-6.32,4.33c-2.61,1.22-5.63,2.22-9.05,2.96c-3.42,0.75-6.94,1.12-10.57,1.12c-6.19,0-11.56-0.96-16.1-2.88
				c-4.54-1.92-8.28-4.68-11.21-8.25c-2.93-3.57-5.13-7.88-6.57-12.89c-1.43-5.01-2.16-10.62-2.16-16.81V74.1L367,74.1z
				 M446.88,37.91c0-1.71,0.59-3.18,1.76-4.4c1.17-1.23,2.67-1.84,4.49-1.84c1.81,0,3.31,0.59,4.48,1.76
				c1.17,1.17,1.76,2.68,1.76,4.49v94.81c0,1.8,0.14,3.29,0.4,4.4c0.26,1.12,0.93,2.12,1.84,3.12c0.25,0.28,0.45,0.75,0.72,1.28
				c0.27,0.53,0.4,1.12,0.4,1.76c0,1.6-0.56,2.96-1.68,4.08c-1.12,1.12-2.48,1.68-4.08,1.68c-0.96,0-2.04-0.19-3.21-0.56
				c-1.17-0.37-2.27-1.13-3.28-2.24c-1.01-1.11-1.87-2.75-2.56-4.89c-0.69-2.13-1.04-5.02-1.04-8.65V37.91L446.88,37.91z
				 M508.7,138.01c3.42,0,6.36-0.43,8.81-1.28c2.45-0.85,5.08-1.92,7.85-3.2c0.21-0.1,0.51-0.22,0.88-0.32
				c0.37-0.1,0.83-0.16,1.36-0.16c1.6,0,2.94,0.57,4,1.68c1.06,1.12,1.6,2.43,1.6,3.92c0,1.92-0.94,3.55-2.81,4.89
				c-1.86,1.33-4.16,2.4-6.89,3.2c-2.73,0.8-5.58,1.39-8.57,1.76c-2.99,0.37-5.55,0.56-7.69,0.56c-4.48,0-8.52-0.67-12.09-2
				c-3.57-1.33-6.57-3.21-8.97-5.61c-2.4-2.4-4.25-5.24-5.53-8.49c-1.28-3.25-1.92-6.75-1.92-10.49V92.52
				c0-3.84,0.65-7.43,1.92-10.73c1.28-3.31,3.16-6.17,5.61-8.57c2.45-2.4,5.5-4.3,9.13-5.68c3.63-1.39,7.85-2.08,12.65-2.08
				c8.97,0,15.64,2.35,20.02,7.05c4.38,4.7,6.57,11.05,6.57,19.06c0,7.37-2.11,13.16-6.33,17.38c-4.21,4.21-11.13,6.33-20.74,6.33
				c-2.46,0-5.1-0.11-7.93-0.32c-2.82-0.21-5.63-0.59-8.41-1.12v9.45c0,4.47,1.47,8.07,4.4,10.73
				C498.58,136.67,502.94,138.01,508.7,138.01L508.7,138.01z M522.32,91.56c0-5.23-1.26-9-3.77-11.29
				c-2.5-2.29-6.11-3.44-10.81-3.44c-5.23,0-9.29,1.31-12.17,3.93c-2.88,2.61-4.32,6.17-4.32,10.65v12.17
				c2.99,0.43,6.14,0.73,9.45,0.88c3.31,0.16,5.77,0.24,7.37,0.24c2.99,0,5.42-0.38,7.29-1.12c1.86-0.74,3.34-1.74,4.4-2.96
				c1.07-1.22,1.76-2.65,2.08-4.24C522.16,94.76,522.32,93.16,522.32,91.56L522.32,91.56z M591.18,93.64
				c0-11.43-5.71-17.14-17.14-17.14c-2.78,0-5.05,0.32-6.81,0.96c-1.76,0.64-3.55,1.45-5.37,2.4c-0.21,0.11-0.75,0.35-1.6,0.72
				c-0.85,0.37-1.71,0.56-2.56,0.56c-1.5,0-2.59-0.59-3.28-1.76c-0.69-1.17-1.08-2.36-1.2-3.52c-0.19-1.81,0.32-3.39,1.6-4.72
				c1.28-1.33,3.02-2.43,5.2-3.28c2.19-0.85,4.65-1.47,7.37-1.84c2.72-0.37,5.47-0.56,8.25-0.56c10.04,0,17.22,2.73,21.54,8.17
				c4.32,5.44,6.49,13.52,6.49,24.18v35.24c0,3.19,0.96,4.81,2.88,4.81c0.21,0,0.4-0.03,0.56-0.08c0.16-0.05,0.4-0.08,0.72-0.08
				c1.49,0,2.65,0.57,3.45,1.68c0.8,1.12,1.2,2.38,1.2,3.77c0,2.03-0.75,3.44-2.24,4.25c-1.49,0.8-3.15,1.2-4.97,1.2
				c-2.67,0-5.04-0.72-7.13-2.16c-2.08-1.44-3.71-3.39-4.89-5.84c-6.19,5.66-13.51,8.49-21.94,8.49c-8.33,0-14.5-2.22-18.5-6.65
				c-4-4.43-6.01-10.28-6.01-17.54v-0.64c0-15.8,9.39-23.7,28.19-23.7c5.66,0,11.05,0.75,16.18,2.24V93.64L591.18,93.64z
				 M574.85,111.1c-3.31,0-5.98,0.35-8.01,1.04c-2.03,0.69-3.6,1.65-4.72,2.88c-1.12,1.23-1.9,2.64-2.32,4.24
				c-0.42,1.6-0.64,3.32-0.64,5.12v0.64c0,3.73,1.02,6.81,3.05,9.21c2.02,2.4,5.71,3.6,11.05,3.6c3.42,0,6.57-0.57,9.45-1.68
				c2.88-1.12,5.71-2.91,8.49-5.37v-17.3c-2.67-0.86-5.45-1.47-8.33-1.84C579.98,111.29,577.3,111.1,574.85,111.1L574.85,111.1z
				 M636.74,142.81c0,1.71-0.51,3.15-1.52,4.33c-1.01,1.18-2.59,1.76-4.72,1.76c-2.14,0-3.71-0.59-4.72-1.76
				c-1.01-1.17-1.52-2.61-1.52-4.33V88.36c0-2.24-0.08-3.95-0.24-5.12c-0.16-1.17-0.37-2.13-0.64-2.88
				c-0.27-0.75-0.59-1.31-0.96-1.68c-0.37-0.38-0.72-0.88-1.04-1.52c-0.21-0.32-0.45-0.72-0.72-1.2c-0.27-0.48-0.4-1.15-0.4-2
				c0-1.6,0.56-2.94,1.68-4c1.12-1.07,2.54-1.6,4.24-1.6c1.49,0,2.78,0.43,3.85,1.28c1.07,0.85,2.03,1.97,2.88,3.36
				c3.52-2.46,7.26-4.27,11.21-5.45c3.95-1.17,7.85-1.76,11.69-1.76c8.54,0,14.92,2.78,19.14,8.33c4.22,5.55,6.33,12.87,6.33,21.94
				v46.76c0,1.71-0.54,3.15-1.6,4.33c-1.07,1.18-2.62,1.76-4.65,1.76c-2.03,0-3.57-0.59-4.64-1.76c-1.07-1.17-1.6-2.61-1.6-4.33
				V96.05c0-6.09-1.25-10.79-3.77-14.09c-2.51-3.31-6.16-4.97-10.97-4.97c-3.1,0-6.14,0.59-9.13,1.76
				c-2.99,1.17-5.87,2.83-8.65,4.97c0.32,1.82,0.48,3.36,0.48,4.64V142.81z"/>
			<path class="st1" d="M717.94,106.13v36.52c0,1.82-0.61,3.39-1.84,4.72c-1.23,1.33-2.75,2-4.56,2c-1.71,0-3.21-0.67-4.49-2
				c-1.28-1.34-1.92-2.91-1.92-4.72V42.55c0-2.13,0.75-3.95,2.24-5.45c1.49-1.49,3.31-2.24,5.44-2.24h23.54
				c6.62,0,12.23,0.99,16.82,2.96c4.59,1.97,8.3,4.62,11.13,7.93c2.83,3.31,4.88,7.13,6.16,11.45c1.28,4.33,1.92,8.84,1.92,13.54
				c0,11.42-3.26,20.18-9.77,26.26c-6.51,6.09-15.27,9.13-26.27,9.13H717.94L717.94,106.13z M717.94,93.64h18.42
				c7.69,0,13.48-1.87,17.38-5.61c3.9-3.74,5.85-9.56,5.85-17.46c0-2.88-0.32-5.71-0.96-8.49c-0.64-2.78-1.81-5.26-3.52-7.45
				c-1.71-2.19-4.08-3.95-7.13-5.28c-3.04-1.34-6.91-2-11.61-2h-18.42V93.64L717.94,93.64z M799.23,142.81
				c0,1.81-0.59,3.31-1.76,4.48c-1.17,1.18-2.67,1.76-4.48,1.76c-1.81,0-3.31-0.59-4.48-1.76c-1.17-1.17-1.76-2.67-1.76-4.48V88.68
				c0-2.67-0.19-4.83-0.56-6.49c-0.37-1.66-1.06-3.23-2-4.73c-0.33-0.52-0.59-1.02-0.8-1.44c-0.21-0.43-0.32-1.02-0.32-1.76
				c0-1.71,0.59-3.07,1.76-4.08c1.17-1.02,2.51-1.52,4.01-1.52c1.28,0,2.46,0.4,3.52,1.2c1.07,0.8,2.03,1.84,2.88,3.12
				c3.42-2.13,7.15-3.82,11.21-5.05c4.06-1.23,7.64-1.84,10.73-1.84c3.2,0,5.39,0.59,6.57,1.76c1.17,1.17,1.76,2.61,1.76,4.32
				c0,2.03-0.62,3.64-1.84,4.8c-1.22,1.17-2.7,1.67-4.4,1.6c-3.31-0.14-6.55,0.09-9.69,0.56c-3.15,0.48-6.7,2.22-10.65,5.2
				c0.11,0.85,0.19,1.63,0.24,2.32c0.05,0.69,0.08,1.36,0.08,2V142.81L799.23,142.81z M860.98,149.06c-4.91,0-9.23-0.72-12.97-2.16
				c-3.74-1.44-6.86-3.45-9.37-6c-2.5-2.56-4.41-5.58-5.69-9.05c-1.28-3.47-1.92-7.23-1.92-11.29V93.8c0-3.95,0.64-7.66,1.92-11.13
				c1.28-3.47,3.18-6.49,5.69-9.05c2.51-2.56,5.63-4.59,9.37-6.09c3.74-1.49,8.06-2.24,12.97-2.24c4.91,0,9.24,0.75,12.98,2.24
				c3.73,1.49,6.86,3.53,9.37,6.09c2.51,2.56,4.41,5.59,5.68,9.05c1.28,3.46,1.92,7.2,1.92,11.13v26.75c0,4.05-0.65,7.83-1.92,11.29
				c-1.27,3.46-3.18,6.49-5.68,9.05c-2.5,2.55-5.63,4.56-9.37,6C870.22,148.34,865.89,149.06,860.98,149.06L860.98,149.06z
				 M860.98,137.52c5.77,0,10.12-1.49,13.06-4.48c2.94-2.99,4.4-7.15,4.4-12.49v-26.9c0-5.23-1.47-9.34-4.4-12.33
				c-2.94-2.99-7.29-4.49-13.06-4.49c-5.76,0-10.11,1.49-13.05,4.49c-2.94,2.99-4.4,7.11-4.4,12.33v26.9c0,5.33,1.47,9.5,4.4,12.49
				C850.86,136.03,855.22,137.52,860.98,137.52L860.98,137.52z M968.25,40.79c0-2.14-0.75-3.95-2.24-5.45
				c-1.49-1.49-3.31-2.24-5.45-2.24c-2.14,0-3.95,0.75-5.44,2.24c-1.5,1.49-2.24,3.31-2.24,5.45c0,2.14,0.75,3.95,2.24,5.44
				c1.49,1.49,3.31,2.24,5.44,2.24c2.13,0,3.95-0.75,5.45-2.24C967.51,44.74,968.25,42.93,968.25,40.79L968.25,40.79z
				 M966.81,142.81V72.18c0-1.71-0.59-3.18-1.76-4.4c-1.17-1.22-2.67-1.84-4.48-1.84c-1.81,0-3.32,0.62-4.48,1.84
				c-1.17,1.22-1.76,2.71-1.76,4.4v70.63c0,1.8,0.59,3.31,1.76,4.48c1.17,1.18,2.67,1.76,4.48,1.76c1.82,0,3.31-0.59,4.48-1.76
				C966.22,146.12,966.81,144.63,966.81,142.81L966.81,142.81z M907.05,61.77c0-5.12,0.66-9.54,1.92-13.21
				c1.27-3.67,3.01-6.75,5.2-9.21c2.19-2.46,4.81-4.3,7.85-5.53c3.04-1.23,6.33-2,9.85-2.16c0.62-0.03,1.76,0.03,3.36,0.08
				c1.6,0.05,3.23,0.3,4.89,0.72c1.66,0.43,3.14,1.16,4.41,2.16c1.27,1,1.92,2.43,1.92,4.24c0,1.82-0.62,3.26-1.84,4.33
				c-1.23,1.07-2.64,1.6-4.24,1.6c-1.39,0-2.81-0.2-4.24-0.56c-1.43-0.36-3.28-0.56-5.52-0.56c-3.63,0-6.4,1.67-8.25,4.97
				c-1.86,3.3-2.8,7.29-2.8,11.85v9.93h16.66c1.6,0,2.96,0.56,4.08,1.68c1.12,1.12,1.68,2.54,1.68,4.25c0,1.71-0.56,3.12-1.68,4.24
				c-1.12,1.12-2.51,1.68-4.08,1.68h-16.66v60.22c0,1.68-0.54,3.15-1.6,4.33c-1.07,1.17-2.62,1.76-4.64,1.76
				c-2.03,0-3.58-0.59-4.65-1.76c-1.07-1.17-1.6-2.62-1.6-4.33V61.77L907.05,61.77z M983,48.32c0-1.71,0.54-3.15,1.6-4.33
				c1.07-1.17,2.62-1.76,4.65-1.76c2.03,0,3.58,0.59,4.64,1.76c1.07,1.17,1.6,2.64,1.6,4.33v22.1h16.66c1.6,0,2.96,0.56,4.08,1.68
				c1.12,1.12,1.68,2.54,1.68,4.25c0,1.71-0.56,3.12-1.68,4.24c-1.12,1.12-2.51,1.68-4.08,1.68h-16.66v31.87
				c0,4.14,0.14,7.66,0.4,10.49c0.27,2.83,0.89,5.16,1.84,6.97c0.95,1.8,2.31,3.14,4,3.92c1.7,0.79,4,1.2,6.89,1.2
				c0.54,0,1.05-0.04,1.52-0.08c0.47-0.04,0.99-0.08,1.53-0.08c0.96,0,1.92,0.05,2.88,0.16c0.96,0.11,1.86,0.39,2.64,0.8
				c0.79,0.41,1.48,1.03,2,1.76c0.52,0.74,0.8,1.76,0.8,3.05c0,1.39-0.28,2.49-0.8,3.28c-0.52,0.79-1.24,1.43-2.08,1.84
				c-0.84,0.41-1.85,0.71-2.96,0.8c-1.11,0.09-2.22,0.16-3.28,0.16c-5.66,0-10.29-0.71-13.85-2.08c-3.56-1.38-6.42-3.48-8.49-6.24
				c-2.07-2.76-3.54-6.23-4.33-10.33c-0.79-4.1-1.2-8.94-1.2-14.49V48.32z"/>
			<path class="st0" d="M13.37,331.08c0.21,0,0.42-0.04,0.63-0.11c0.21-0.07,0.41-0.18,0.6-0.33c0.18-0.15,0.33-0.35,0.44-0.59
				c0.11-0.24,0.17-0.52,0.17-0.84c0-0.46-0.12-0.87-0.37-1.21c-0.25-0.34-0.68-0.52-1.3-0.52h-2.92v3.59H13.37L13.37,331.08z
				 M10.62,334.14v4.16h2.68c0.8,0,1.39-0.18,1.78-0.55c0.39-0.37,0.59-0.86,0.59-1.48c0-0.69-0.21-1.21-0.63-1.58
				c-0.42-0.37-0.95-0.55-1.59-0.55H10.62L10.62,334.14z M9.13,341.34c-0.53,0-0.97-0.17-1.33-0.51c-0.36-0.34-0.54-0.75-0.54-1.21
				v-13.43c0-0.5,0.18-0.91,0.55-1.23c0.37-0.33,0.81-0.49,1.32-0.49h4.04c0.89,0,1.68,0.13,2.36,0.39
				c0.68,0.26,1.24,0.61,1.69,1.05c0.45,0.44,0.78,0.94,1.01,1.51c0.22,0.56,0.33,1.14,0.33,1.74c0,0.85-0.24,1.54-0.72,2.07
				c-0.48,0.53-1.08,0.98-1.8,1.33c0.37,0.14,0.73,0.32,1.09,0.54c0.36,0.22,0.68,0.47,0.96,0.78c0.28,0.3,0.5,0.65,0.67,1.05
				c0.17,0.4,0.25,0.86,0.25,1.39c0,0.7-0.14,1.36-0.41,1.96c-0.27,0.61-0.66,1.14-1.17,1.59c-0.51,0.45-1.13,0.81-1.87,1.08
				c-0.73,0.26-1.56,0.39-2.49,0.39H9.13L9.13,341.34z M38.62,325.79c0-0.42,0.16-0.77,0.49-1.08c0.33-0.3,0.72-0.45,1.19-0.45
				c0.46,0,0.86,0.15,1.19,0.45c0.33,0.3,0.49,0.66,0.49,1.08v14.24c0,0.41-0.16,0.77-0.49,1.08c-0.33,0.3-0.72,0.45-1.19,0.45
				c-0.46,0-0.86-0.15-1.19-0.45c-0.33-0.3-0.49-0.66-0.49-1.08V325.79L38.62,325.79z M29.57,330.19h1.8c0.92,0,1.76,0.12,2.51,0.37
				c0.75,0.25,1.39,0.6,1.93,1.07c0.53,0.46,0.95,1.04,1.23,1.73c0.29,0.69,0.43,1.48,0.43,2.36c0,0.73-0.11,1.44-0.32,2.12
				c-0.21,0.68-0.56,1.28-1.04,1.79c-0.48,0.52-1.11,0.93-1.89,1.24c-0.78,0.31-1.73,0.47-2.85,0.47h-3.28
				c-0.26,0-0.49-0.05-0.72-0.14c-0.22-0.09-0.42-0.22-0.59-0.37c-0.17-0.15-0.3-0.33-0.41-0.54c-0.1-0.21-0.16-0.43-0.16-0.67
				v-13.78c0-0.43,0.17-0.8,0.5-1.11c0.34-0.31,0.73-0.47,1.17-0.47c0.46,0,0.86,0.16,1.19,0.48c0.33,0.32,0.49,0.69,0.49,1.1
				V330.19L29.57,330.19z M29.57,333.23v5.07h1.8c0.56,0,1.02-0.08,1.38-0.23c0.36-0.15,0.64-0.35,0.84-0.59
				c0.2-0.24,0.34-0.51,0.42-0.81c0.08-0.3,0.12-0.61,0.12-0.93c0-0.86-0.23-1.5-0.7-1.9c-0.46-0.41-1.15-0.61-2.06-0.61H29.57
				L29.57,333.23z M60.28,339.79c0,0.43-0.16,0.8-0.49,1.1c-0.33,0.3-0.72,0.45-1.19,0.45h-6.34c-0.29,0-0.57-0.03-0.84-0.08
				c-0.27-0.06-0.51-0.15-0.72-0.28c-0.21-0.13-0.37-0.3-0.49-0.53c-0.12-0.22-0.18-0.5-0.18-0.81v-13.48
				c0-0.21,0.05-0.42,0.14-0.62c0.1-0.21,0.22-0.39,0.38-0.55c0.16-0.16,0.35-0.29,0.58-0.38c0.22-0.1,0.47-0.14,0.74-0.14h6.49
				c0.46,0,0.86,0.15,1.19,0.47c0.33,0.31,0.49,0.67,0.49,1.09c0,0.43-0.16,0.78-0.49,1.07c-0.33,0.28-0.72,0.42-1.19,0.42h-4.98
				v3.85h4.52c0.41,0,0.79,0.14,1.14,0.43c0.34,0.29,0.51,0.65,0.51,1.08c0,0.43-0.16,0.79-0.48,1.09c-0.32,0.3-0.71,0.44-1.17,0.44
				h-4.52v3.9h5.22c0.45,0,0.84,0.14,1.17,0.43C60.11,339.02,60.28,339.37,60.28,339.79L60.28,339.79z M77.68,336.48
				c0,0.67-0.14,1.31-0.41,1.92c-0.27,0.61-0.66,1.14-1.17,1.62c-0.51,0.47-1.13,0.85-1.86,1.12c-0.73,0.28-1.54,0.42-2.43,0.42
				c-0.53,0-1.11-0.05-1.75-0.16c-0.64-0.1-1.23-0.26-1.78-0.48c-0.55-0.22-1.01-0.48-1.39-0.79c-0.37-0.31-0.56-0.68-0.56-1.11
				c0-0.4,0.16-0.74,0.46-1.02c0.31-0.28,0.68-0.42,1.09-0.42c0.26,0,0.51,0.06,0.75,0.17s0.51,0.24,0.79,0.37
				c0.28,0.14,0.59,0.26,0.93,0.37c0.34,0.11,0.75,0.17,1.21,0.17c0.91,0,1.6-0.22,2.07-0.66c0.47-0.44,0.71-0.97,0.71-1.59
				c0-0.4-0.1-0.73-0.29-0.99c-0.19-0.26-0.45-0.47-0.77-0.63c-0.32-0.16-0.69-0.28-1.1-0.36c-0.41-0.08-0.85-0.14-1.32-0.17
				c-0.22-0.02-0.45-0.04-0.67-0.07c-0.22-0.03-0.42-0.1-0.6-0.19c-0.18-0.09-0.31-0.24-0.42-0.44c-0.1-0.2-0.16-0.47-0.16-0.83
				c0-0.33,0.05-0.6,0.16-0.79c0.1-0.19,0.24-0.33,0.39-0.43c0.16-0.1,0.34-0.16,0.54-0.18c0.2-0.02,0.39-0.04,0.56-0.04
				c0.4-0.02,0.8-0.07,1.2-0.17c0.4-0.1,0.75-0.24,1.06-0.42c0.31-0.18,0.56-0.41,0.75-0.68c0.19-0.27,0.29-0.6,0.29-0.98
				c0-0.22-0.04-0.45-0.12-0.67c-0.08-0.22-0.21-0.43-0.38-0.61c-0.18-0.18-0.41-0.33-0.7-0.44c-0.29-0.11-0.65-0.17-1.08-0.17
				c-0.67,0-1.28,0.13-1.84,0.38c-0.27,0.13-0.55,0.28-0.82,0.44c-0.28,0.17-0.59,0.25-0.92,0.25c-0.38,0-0.73-0.13-1.05-0.39
				c-0.32-0.26-0.48-0.59-0.48-0.99c0-0.4,0.17-0.76,0.51-1.08c0.34-0.32,0.78-0.59,1.31-0.81c0.53-0.22,1.1-0.39,1.72-0.51
				c0.62-0.12,1.21-0.18,1.77-0.18c0.88,0,1.65,0.14,2.32,0.43c0.67,0.29,1.23,0.66,1.68,1.11c0.45,0.45,0.78,0.97,1.01,1.53
				c0.22,0.57,0.33,1.12,0.33,1.66c0,0.81-0.23,1.51-0.68,2.08c-0.45,0.57-1.12,1.08-2,1.53c0.96,0.38,1.71,0.88,2.27,1.5
				C77.41,334.72,77.68,335.51,77.68,336.48L77.68,336.48z M90.23,333.13c-0.05,1.04-0.16,1.99-0.34,2.86
				c-0.18,0.87-0.42,1.64-0.74,2.31h4.98v-10.82h-3.69L90.23,333.13L90.23,333.13z M85.54,338.3c0.4-0.46,0.71-1.14,0.92-2.02
				c0.22-0.89,0.36-1.95,0.42-3.2l0.36-6.89c0.03-0.46,0.22-0.87,0.57-1.21c0.35-0.34,0.78-0.51,1.29-0.51h6.51
				c0.26,0,0.49,0.05,0.72,0.14c0.22,0.1,0.42,0.22,0.59,0.37c0.17,0.15,0.3,0.33,0.41,0.54s0.16,0.43,0.16,0.67v12.11
				c0.51,0,0.9,0.18,1.17,0.54c0.27,0.36,0.41,0.77,0.41,1.23v3.06c0,0.43-0.16,0.79-0.49,1.09c-0.33,0.3-0.73,0.44-1.21,0.44
				c-0.46,0-0.85-0.15-1.17-0.44c-0.32-0.3-0.48-0.66-0.48-1.09v-1.8h-8.52v1.8c0,0.43-0.16,0.79-0.48,1.09s-0.71,0.44-1.17,0.44
				c-0.46,0-0.85-0.15-1.17-0.44c-0.32-0.3-0.48-0.66-0.48-1.09v-3.06c0-0.46,0.15-0.87,0.44-1.23
				C84.62,338.48,85.02,338.3,85.54,338.3L85.54,338.3z M117.8,340c0,0.42-0.16,0.78-0.49,1.09c-0.33,0.31-0.72,0.47-1.19,0.47
				c-0.45,0-0.84-0.16-1.17-0.47c-0.34-0.31-0.5-0.67-0.5-1.09v-5.58h-5.1V340c0,0.42-0.16,0.78-0.49,1.09
				c-0.33,0.31-0.72,0.47-1.19,0.47c-0.46,0-0.86-0.16-1.18-0.47c-0.33-0.31-0.49-0.67-0.49-1.09v-14.22c0-0.42,0.16-0.77,0.49-1.08
				c0.33-0.3,0.72-0.45,1.18-0.45c0.46,0,0.86,0.15,1.19,0.45c0.33,0.3,0.49,0.66,0.49,1.08v5.58h5.1v-5.58
				c0-0.42,0.17-0.77,0.5-1.08c0.33-0.3,0.73-0.45,1.17-0.45c0.45,0,0.84,0.15,1.17,0.45c0.33,0.3,0.5,0.66,0.5,1.08V340L117.8,340z
				 M128.02,340.43c-0.13,0.35-0.35,0.63-0.67,0.83c-0.32,0.2-0.62,0.3-0.91,0.3c-0.46,0-0.87-0.14-1.21-0.42
				c-0.34-0.28-0.51-0.65-0.51-1.11c0-0.06,0-0.15,0.01-0.26c0.01-0.11,0.03-0.2,0.06-0.26l4.67-13.62
				c0.16-0.46,0.38-0.85,0.66-1.16c0.28-0.31,0.71-0.47,1.28-0.47c0.58,0,1,0.15,1.28,0.45c0.28,0.3,0.51,0.69,0.68,1.17l4.67,13.62
				c0.03,0.06,0.05,0.15,0.06,0.26c0.01,0.11,0.01,0.2,0.01,0.26c0,0.46-0.16,0.83-0.49,1.11s-0.74,0.42-1.23,0.42
				c-0.32,0-0.64-0.1-0.96-0.31c-0.32-0.21-0.54-0.48-0.67-0.81l-0.84-2.42h-5.1L128.02,340.43L128.02,340.43z M131.83,331.19
				c-0.11-0.35-0.2-0.74-0.26-1.16c-0.06-0.42-0.12-0.82-0.17-1.19c-0.05,0.37-0.1,0.76-0.17,1.19c-0.06,0.42-0.15,0.81-0.26,1.16
				l-1.27,4.09h3.35L131.83,331.19L131.83,331.19z M144.92,329.54c0-0.62,0.1-1.24,0.3-1.84c0.2-0.61,0.53-1.15,0.98-1.63
				c0.45-0.48,1.06-0.87,1.82-1.16c0.76-0.3,1.7-0.44,2.84-0.44h3.69c0.24,0,0.47,0.05,0.69,0.14c0.22,0.1,0.42,0.22,0.59,0.37
				c0.17,0.15,0.3,0.33,0.4,0.54c0.1,0.21,0.14,0.43,0.14,0.67v13.79c0,0.43-0.16,0.8-0.48,1.11c-0.32,0.31-0.71,0.47-1.17,0.47
				c-0.22,0-0.44-0.04-0.65-0.13c-0.21-0.09-0.39-0.2-0.55-0.35c-0.16-0.14-0.28-0.31-0.37-0.5c-0.09-0.19-0.13-0.39-0.13-0.6v-5.48
				h-1.17l-4,6.3c-0.32,0.49-0.79,0.74-1.41,0.74c-0.16,0-0.34-0.04-0.54-0.12c-0.2-0.08-0.39-0.18-0.57-0.31
				c-0.18-0.13-0.34-0.28-0.46-0.47c-0.12-0.18-0.18-0.38-0.18-0.59c0-0.13,0.02-0.29,0.07-0.48c0.05-0.19,0.12-0.36,0.22-0.5
				l3.26-4.93c-1.04-0.33-1.85-0.89-2.43-1.65C145.21,331.72,144.92,330.74,144.92,329.54L144.92,329.54z M148.27,329.54
				c0,0.62,0.2,1.1,0.59,1.44c0.39,0.33,0.96,0.5,1.71,0.5h2.44v-3.97h-2.3c-0.5,0-0.9,0.06-1.22,0.18
				c-0.32,0.12-0.57,0.28-0.74,0.47c-0.18,0.19-0.3,0.41-0.37,0.65C148.3,329.04,148.27,329.29,148.27,329.54L148.27,329.54z
				 M178.55,340.6v-0.02c-0.13,0.22-0.31,0.44-0.55,0.66c-0.24,0.22-0.57,0.32-0.98,0.32c-0.43,0-0.81-0.16-1.14-0.48
				c-0.33-0.32-0.49-0.68-0.49-1.08c0-0.13,0.03-0.27,0.07-0.43c0.05-0.16,0.1-0.29,0.17-0.38l4.14-6.61l-3.81-6.01
				c-0.13-0.25-0.19-0.53-0.19-0.81c0-0.38,0.16-0.73,0.48-1.04c0.32-0.31,0.7-0.47,1.13-0.47c0.37,0,0.69,0.11,0.97,0.33
				c0.28,0.22,0.51,0.48,0.68,0.77l2.71,4.45l2.7-4.45c0.16-0.22,0.37-0.46,0.65-0.72c0.27-0.26,0.62-0.38,1.03-0.38
				c0.41,0,0.78,0.15,1.1,0.45c0.32,0.3,0.48,0.66,0.48,1.08c0,0.13-0.02,0.26-0.06,0.39c-0.04,0.14-0.09,0.27-0.16,0.39l-3.78,6.01
				l4.14,6.61c0.06,0.1,0.12,0.22,0.17,0.38c0.05,0.16,0.07,0.3,0.07,0.43c0,0.4-0.16,0.76-0.49,1.08c-0.33,0.32-0.7,0.48-1.11,0.48
				c-0.41,0-0.74-0.1-0.98-0.31c-0.24-0.21-0.43-0.42-0.57-0.65l-3.18-5.26L178.55,340.6L178.55,340.6z M196.67,341.56
				c-0.53,0-0.95-0.16-1.28-0.48c-0.33-0.32-0.49-0.7-0.49-1.15v-14.12c0-0.41,0.16-0.78,0.48-1.09c0.32-0.31,0.71-0.47,1.17-0.47
				c0.46,0,0.86,0.15,1.2,0.47c0.33,0.31,0.5,0.67,0.5,1.09v9.05c0.54-0.96,1.04-1.83,1.5-2.62c0.45-0.79,0.89-1.56,1.32-2.3
				c0.42-0.74,0.85-1.5,1.29-2.26c0.44-0.76,0.92-1.61,1.45-2.54c0.18-0.27,0.41-0.49,0.71-0.65c0.29-0.16,0.6-0.24,0.92-0.24
				c0.51,0,0.93,0.15,1.26,0.47c0.33,0.31,0.49,0.7,0.49,1.16V340c0,0.42-0.16,0.78-0.48,1.09c-0.32,0.31-0.71,0.47-1.17,0.47
				c-0.46,0-0.86-0.16-1.2-0.47c-0.34-0.31-0.5-0.67-0.5-1.09v-8.95l-5.55,9.67c-0.16,0.26-0.39,0.46-0.68,0.61
				S196.99,341.56,196.67,341.56L196.67,341.56z M230.44,340.05c0,0.41-0.16,0.77-0.49,1.07c-0.33,0.3-0.71,0.44-1.16,0.44
				c-0.46,0-0.86-0.15-1.2-0.44c-0.33-0.3-0.5-0.65-0.5-1.07v-8.23l-2.73,5.36c-0.16,0.32-0.38,0.55-0.66,0.69
				c-0.28,0.14-0.59,0.21-0.92,0.21c-0.32,0-0.62-0.07-0.9-0.21c-0.28-0.14-0.5-0.38-0.66-0.69l-2.73-5.36v8.23
				c0,0.41-0.17,0.77-0.51,1.07c-0.34,0.3-0.75,0.44-1.21,0.44c-0.46,0-0.85-0.15-1.16-0.44c-0.31-0.3-0.46-0.65-0.46-1.07v-14.22
				c0-0.47,0.16-0.84,0.49-1.14c0.33-0.3,0.74-0.44,1.23-0.44c0.8,0,1.36,0.31,1.67,0.93l4.26,8.45l4.26-8.47
				c0.17-0.35,0.41-0.59,0.7-0.72c0.3-0.13,0.61-0.19,0.95-0.19c0.49,0,0.9,0.15,1.23,0.47c0.33,0.31,0.49,0.68,0.49,1.11V340.05
				L230.44,340.05z M246.09,335.05c-0.41,0.22-0.83,0.37-1.23,0.44c-0.41,0.07-0.83,0.11-1.26,0.11c-1.77,0-3.15-0.48-4.15-1.43
				c-1-0.95-1.49-2.32-1.49-4.1v-4.24c0-0.42,0.16-0.78,0.49-1.1c0.33-0.32,0.72-0.48,1.19-0.48c0.45,0,0.84,0.15,1.17,0.47
				c0.33,0.31,0.5,0.68,0.5,1.11v4.21c0,0.89,0.2,1.54,0.61,1.93c0.41,0.39,1.02,0.59,1.83,0.59c0.78,0,1.56-0.2,2.35-0.6v-6.13
				c0-0.42,0.16-0.78,0.49-1.1c0.33-0.32,0.72-0.48,1.19-0.48c0.45,0,0.84,0.15,1.17,0.47c0.34,0.31,0.5,0.68,0.5,1.11v14.14
				c0,0.43-0.17,0.8-0.5,1.11c-0.33,0.31-0.73,0.47-1.17,0.47c-0.46,0-0.86-0.16-1.19-0.48c-0.33-0.32-0.49-0.69-0.49-1.1V335.05
				L246.09,335.05z M259.28,341.56c-0.53,0-0.95-0.16-1.28-0.48c-0.33-0.32-0.49-0.7-0.49-1.15v-14.12c0-0.41,0.16-0.78,0.48-1.09
				c0.32-0.31,0.71-0.47,1.17-0.47c0.46,0,0.86,0.15,1.2,0.47c0.33,0.31,0.5,0.67,0.5,1.09v9.05c0.54-0.96,1.04-1.83,1.5-2.62
				c0.45-0.79,0.89-1.56,1.32-2.3c0.42-0.74,0.85-1.5,1.29-2.26c0.44-0.76,0.92-1.61,1.45-2.54c0.18-0.27,0.41-0.49,0.71-0.65
				c0.29-0.16,0.6-0.24,0.92-0.24c0.51,0,0.93,0.15,1.26,0.47c0.33,0.31,0.49,0.7,0.49,1.16V340c0,0.42-0.16,0.78-0.48,1.09
				c-0.32,0.31-0.71,0.47-1.17,0.47c-0.46,0-0.86-0.16-1.2-0.47c-0.34-0.31-0.5-0.67-0.5-1.09v-8.95l-5.55,9.67
				c-0.16,0.26-0.39,0.46-0.68,0.61C259.91,341.48,259.6,341.56,259.28,341.56L259.28,341.56z M280.54,335.26
				c0,0.51,0.05,0.97,0.14,1.39c0.1,0.41,0.25,0.77,0.48,1.05c0.22,0.29,0.52,0.51,0.89,0.67c0.37,0.16,0.82,0.24,1.36,0.24
				c0.38,0,0.73-0.05,1.05-0.14c0.32-0.09,0.63-0.24,0.93-0.43l0.24-0.14c0.16-0.1,0.3-0.18,0.43-0.25s0.33-0.11,0.6-0.11
				c0.46,0,0.84,0.14,1.14,0.43c0.3,0.29,0.44,0.62,0.44,1c0,0.35-0.14,0.68-0.42,0.99c-0.28,0.31-0.65,0.58-1.11,0.81
				c-0.46,0.23-0.99,0.41-1.58,0.55c-0.59,0.14-1.21,0.2-1.84,0.2c-1.05,0-1.96-0.15-2.73-0.44c-0.77-0.3-1.4-0.72-1.9-1.27
				c-0.5-0.55-0.87-1.21-1.11-1.99c-0.24-0.77-0.36-1.63-0.36-2.57v-4.74c0-0.94,0.12-1.8,0.36-2.57c0.24-0.77,0.61-1.44,1.11-1.99
				c0.5-0.55,1.14-0.97,1.9-1.27c0.77-0.3,1.68-0.44,2.73-0.44c0.64,0,1.25,0.07,1.84,0.2c0.59,0.14,1.12,0.32,1.58,0.55
				c0.46,0.23,0.83,0.5,1.11,0.81c0.28,0.31,0.42,0.64,0.42,0.99c0,0.38-0.15,0.72-0.44,1c-0.3,0.29-0.67,0.43-1.14,0.43
				c-0.27,0-0.47-0.04-0.6-0.11c-0.13-0.07-0.27-0.16-0.43-0.25l-0.24-0.14c-0.3-0.19-0.61-0.33-0.93-0.43
				c-0.32-0.1-0.67-0.14-1.05-0.14c-0.54,0-1,0.08-1.36,0.24c-0.37,0.16-0.66,0.38-0.89,0.67c-0.22,0.29-0.38,0.64-0.48,1.05
				c-0.09,0.41-0.14,0.88-0.14,1.39V335.26L280.54,335.26z M299.04,327.51h-2.54c-0.48,0-0.88-0.15-1.2-0.44
				c-0.32-0.3-0.48-0.65-0.48-1.06c0-0.16,0.04-0.33,0.13-0.52c0.09-0.18,0.21-0.35,0.36-0.5c0.15-0.15,0.33-0.28,0.53-0.37
				c0.2-0.1,0.42-0.14,0.66-0.14h8.43c0.43,0,0.82,0.15,1.17,0.44c0.35,0.3,0.53,0.66,0.53,1.09c0,0.41-0.17,0.77-0.5,1.06
				c-0.33,0.3-0.73,0.44-1.2,0.44h-2.54v12.52c0,0.41-0.16,0.77-0.49,1.08c-0.33,0.3-0.72,0.45-1.18,0.45
				c-0.46,0-0.86-0.15-1.19-0.45c-0.33-0.3-0.49-0.66-0.49-1.08V327.51L299.04,327.51z M316.87,331.36h0.29l4.79-6.42
				c0.35-0.46,0.81-0.69,1.39-0.69c0.26,0,0.48,0.05,0.68,0.15c0.2,0.11,0.37,0.23,0.52,0.38c0.14,0.15,0.25,0.32,0.32,0.51
				c0.07,0.19,0.11,0.38,0.11,0.55c0,0.13-0.01,0.25-0.05,0.37c-0.03,0.12-0.1,0.27-0.22,0.44l-4.72,6.22l4.72,6.25
				c0.11,0.17,0.18,0.32,0.22,0.44c0.03,0.12,0.05,0.24,0.05,0.37c0,0.17-0.03,0.36-0.11,0.55s-0.18,0.36-0.32,0.51
				c-0.14,0.15-0.32,0.28-0.52,0.38s-0.43,0.16-0.68,0.16c-0.57,0-1.04-0.23-1.39-0.69l-4.81-6.44h-0.26V340
				c0,0.42-0.16,0.78-0.49,1.09c-0.33,0.31-0.72,0.47-1.19,0.47c-0.46,0-0.86-0.16-1.18-0.47c-0.33-0.31-0.49-0.67-0.49-1.09v-14.22
				c0-0.42,0.16-0.77,0.49-1.08c0.33-0.3,0.72-0.45,1.18-0.45c0.46,0,0.86,0.15,1.19,0.45c0.33,0.3,0.49,0.66,0.49,1.08V331.36
				L316.87,331.36z M334.01,340.43c-0.13,0.35-0.35,0.63-0.67,0.83c-0.32,0.2-0.62,0.3-0.91,0.3c-0.46,0-0.87-0.14-1.21-0.42
				c-0.34-0.28-0.51-0.65-0.51-1.11c0-0.06,0-0.15,0.01-0.26c0.01-0.11,0.03-0.2,0.06-0.26l4.67-13.62
				c0.16-0.46,0.38-0.85,0.66-1.16c0.28-0.31,0.71-0.47,1.28-0.47c0.58,0,1,0.15,1.28,0.45c0.28,0.3,0.51,0.69,0.68,1.17l4.67,13.62
				c0.03,0.06,0.05,0.15,0.06,0.26c0.01,0.11,0.01,0.2,0.01,0.26c0,0.46-0.16,0.83-0.49,1.11c-0.33,0.28-0.74,0.42-1.23,0.42
				c-0.32,0-0.64-0.1-0.96-0.31c-0.32-0.21-0.54-0.48-0.67-0.81l-0.84-2.42h-5.1L334.01,340.43L334.01,340.43z M337.82,331.19
				c-0.11-0.35-0.2-0.74-0.26-1.16c-0.06-0.42-0.12-0.82-0.17-1.19c-0.05,0.37-0.1,0.76-0.17,1.19c-0.06,0.42-0.15,0.81-0.26,1.16
				l-1.27,4.09h3.35L337.82,331.19z"/>
		</g>
	</g>
	<g>
		<path class="st5" d="M394.39,178.64c-0.75,0-1.36,0.08-1.84,0.24c-0.48,0.16-0.94,0.45-1.36,0.87c-0.43,0.42-0.72,0.92-0.88,1.53
			c-0.16,0.6-0.29,1.27-0.4,2.01l-0.72,5.76c-0.05,0.6-0.13,1.16-0.24,1.66c-0.11,0.46-0.21,0.94-0.32,1.42
			c-0.11,0.49-0.27,0.91-0.48,1.28c-0.32,0.65-0.71,1.21-1.16,1.7c-0.45,0.49-0.9,0.87-1.32,1.14l8.5,25.1h-8.34l-7.21-21.98h-4.57
			v21.98h-8.18v-49.38h8.18v21.15h2.73c0.96,0,1.74-0.11,2.32-0.35c0.59-0.23,1.07-0.55,1.44-0.97c0.37-0.42,0.64-0.89,0.8-1.42
			c0.16-0.53,0.29-1.12,0.4-1.77l0.8-5.9c0.05-0.18,0.12-0.57,0.2-1.14s0.23-1.24,0.44-1.98c0.21-0.74,0.51-1.5,0.88-2.29
			c0.37-0.79,0.85-1.53,1.44-2.22c1.01-1.11,2.26-1.91,3.73-2.39c1.47-0.49,3.19-0.73,5.17-0.73V178.64z"/>
		<path class="st5" d="M411.14,178.23v14.36c0,0.74-0.03,2-0.08,3.78c-0.05,1.78-0.19,3.73-0.4,5.86c-0.21,2.13-0.54,4.23-0.96,6.31
			c-0.43,2.08-1.02,3.81-1.76,5.2c-1.28,2.36-2.91,4.22-4.89,5.58c-1.98,1.36-4.38,2.05-7.21,2.05h-0.48v-7.07
			c1.6-0.09,2.86-0.51,3.77-1.25c0.91-0.74,1.66-1.66,2.24-2.77c0.48-0.97,0.87-2.15,1.16-3.54c0.29-1.39,0.52-2.87,0.68-4.44
			c0.16-1.57,0.27-3.19,0.32-4.85c0.05-1.66,0.08-3.26,0.08-4.79v-20.67h23.73v49.38h-8.18v-43.14H411.14z"/>
		<path class="st5" d="M454.1,221.36v-32.04h-0.16l-10.74,32.04h-8.18v-49.38h8.18v32.11h0.16l10.74-32.11h8.18v49.38H454.1z"/>
		<path class="st5" d="M469.97,221.36v-49.38h8.18v21.15h10.1v-21.15h8.18v49.38h-8.18v-21.98h-10.1v21.98H469.97z"/>
		<path class="st5" d="M523.2,221.36v-32.04h-0.16l-10.74,32.04h-8.18v-49.38h8.18v32.11h0.16l10.74-32.11h8.18v49.38H523.2z"/>
		<path class="st5" d="M539.07,221.36v-49.38h8.18v21.15h10.1v-21.15h8.18v49.38h-8.18v-21.98h-10.1v21.98H539.07z"/>
		<path class="st5" d="M573.22,221.36v-49.38h22.77v6.66H581.4v42.72H573.22z"/>
		<path class="st5" d="M598.55,183.64c0-1.99,0.4-3.75,1.2-5.27c0.8-1.53,1.87-2.8,3.21-3.81c1.28-0.97,2.74-1.71,4.37-2.22
			c1.63-0.51,3.27-0.76,4.93-0.76c1.66,0,3.3,0.25,4.93,0.76c1.63,0.51,3.11,1.25,4.45,2.22c1.28,1.02,2.32,2.29,3.13,3.81
			c0.8,1.53,1.2,3.28,1.2,5.27v26.08c0,2.08-0.4,3.86-1.2,5.34s-1.84,2.7-3.13,3.67c-1.34,1.02-2.82,1.78-4.45,2.29
			c-1.63,0.51-3.27,0.76-4.93,0.76c-1.66,0-3.3-0.25-4.93-0.76c-1.63-0.51-3.09-1.27-4.37-2.29c-1.34-0.97-2.4-2.2-3.21-3.67
			s-1.2-3.26-1.2-5.34V183.64z M606.73,209.71c0,1.71,0.55,2.97,1.64,3.78c1.09,0.81,2.39,1.21,3.89,1.21c1.5,0,2.79-0.4,3.89-1.21
			c1.09-0.81,1.64-2.07,1.64-3.78v-26.08c0-1.71-0.55-2.97-1.64-3.78c-1.1-0.81-2.39-1.21-3.89-1.21c-1.5,0-2.79,0.41-3.89,1.21
			c-1.1,0.81-1.64,2.07-1.64,3.78V209.71z"/>
		<path class="st5" d="M633.18,221.36v-49.38h11.94c2.62,0,4.85,0.35,6.69,1.04c1.84,0.69,3.35,1.62,4.53,2.77
			c1.17,1.16,2.02,2.49,2.52,3.99c0.51,1.5,0.76,3.06,0.76,4.68v1.8c0,1.34-0.12,2.47-0.36,3.4c-0.24,0.92-0.6,1.73-1.08,2.43
			c-0.91,1.29-2.3,2.4-4.17,3.33c1.92,0.79,3.34,1.94,4.25,3.47c0.91,1.53,1.36,3.61,1.36,6.24v2.77c0,4.35-1.22,7.68-3.65,9.99
			c-2.43,2.31-6.32,3.47-11.66,3.47H633.18z M641.36,178.64v13.59h3.69c2.72,0,4.55-0.59,5.49-1.77c0.93-1.18,1.4-2.9,1.4-5.17
			c0-2.22-0.52-3.88-1.56-4.99s-2.93-1.66-5.65-1.66H641.36z M641.36,198.48v15.81h3.53c1.66,0,2.95-0.21,3.89-0.62
			c0.93-0.42,1.64-0.99,2.12-1.73c0.48-0.74,0.77-1.62,0.88-2.63c0.11-1.02,0.16-2.13,0.16-3.33c0-1.25-0.08-2.33-0.24-3.26
			c-0.16-0.92-0.48-1.71-0.96-2.36c-0.54-0.65-1.26-1.12-2.17-1.42c-0.91-0.3-2.11-0.45-3.61-0.45H641.36z"/>
		<path class="st5" d="M662.04,221.36l12.75-49.38h6.81l12.75,49.38h-8.18l-2.41-10.61h-11.14l-2.4,10.61H662.04z M682.24,204.1
			l-4.01-17.89h-0.16l-4.01,17.89H682.24z"/>
		<path class="st5" d="M715.19,221.36v-21.08h-3.77l-7.13,21.08h-8.34l7.78-21.98c-1.28-0.42-2.41-1.04-3.37-1.87
			s-1.74-1.78-2.32-2.84c-0.59-1.06-0.99-2.31-1.2-3.75c-0.21-1.43-0.32-2.91-0.32-4.44c0-9.66,4.81-14.49,14.43-14.49h12.42v49.38
			H715.19z M711.66,178.64c-2.89,0-4.77,0.66-5.65,1.98c-0.88,1.32-1.32,3.23-1.32,5.72c0,1.25,0.08,2.35,0.24,3.29
			c0.16,0.95,0.45,1.75,0.88,2.39c0.48,0.65,1.15,1.14,2,1.49c0.85,0.35,2,0.52,3.45,0.52h3.93v-15.4H711.66z"/>
		<path class="st5" d="M774.5,178.64c-0.75,0-1.36,0.08-1.84,0.24c-0.48,0.16-0.94,0.45-1.36,0.87c-0.43,0.42-0.72,0.92-0.88,1.53
			c-0.16,0.6-0.29,1.27-0.4,2.01l-0.72,5.76c-0.05,0.6-0.13,1.16-0.24,1.66c-0.11,0.46-0.21,0.94-0.32,1.42
			c-0.11,0.49-0.27,0.91-0.48,1.28c-0.32,0.65-0.71,1.21-1.16,1.7s-0.9,0.87-1.32,1.14l8.5,25.1h-8.34l-7.21-21.98h-4.57v21.98
			h-8.18v-49.38h8.18v21.15h2.73c0.96,0,1.74-0.11,2.32-0.35c0.59-0.23,1.07-0.55,1.44-0.97c0.37-0.42,0.64-0.89,0.8-1.42
			c0.16-0.53,0.29-1.12,0.4-1.77l0.8-5.9c0.05-0.18,0.12-0.57,0.2-1.14s0.23-1.24,0.44-1.98c0.21-0.74,0.51-1.5,0.88-2.29
			c0.37-0.79,0.85-1.53,1.44-2.22c1.01-1.11,2.26-1.91,3.73-2.39c1.47-0.49,3.19-0.73,5.17-0.73V178.64z"/>
		<path class="st5" d="M778.67,183.64c0-1.99,0.4-3.75,1.2-5.27c0.8-1.53,1.87-2.8,3.21-3.81c1.28-0.97,2.74-1.71,4.37-2.22
			c1.63-0.51,3.27-0.76,4.93-0.76c1.66,0,3.3,0.25,4.93,0.76c1.63,0.51,3.11,1.25,4.45,2.22c1.28,1.02,2.32,2.29,3.13,3.81
			c0.8,1.53,1.2,3.28,1.2,5.27v26.08c0,2.08-0.4,3.86-1.2,5.34s-1.84,2.7-3.13,3.67c-1.34,1.02-2.82,1.78-4.45,2.29
			c-1.63,0.51-3.27,0.76-4.93,0.76c-1.66,0-3.3-0.25-4.93-0.76c-1.63-0.51-3.09-1.27-4.37-2.29c-1.34-0.97-2.4-2.2-3.21-3.67
			s-1.2-3.26-1.2-5.34V183.64z M786.85,209.71c0,1.71,0.55,2.97,1.64,3.78c1.09,0.81,2.39,1.21,3.89,1.21c1.5,0,2.79-0.4,3.89-1.21
			c1.09-0.81,1.64-2.07,1.64-3.78v-26.08c0-1.71-0.55-2.97-1.64-3.78c-1.1-0.81-2.39-1.21-3.89-1.21c-1.5,0-2.79,0.41-3.89,1.21
			c-1.1,0.81-1.64,2.07-1.64,3.78V209.71z"/>
		<path class="st5" d="M813.3,221.36v-49.38h7.86l10.5,26.14h0.16l10.42-26.14h7.94v49.38H842v-30.03h-0.16l-8.1,21.22h-4.09
			l-8.02-21.22h-0.16v30.03H813.3z"/>
		<path class="st5" d="M857.87,221.36v-49.38h26.05v49.38h-8.18v-43.14h-9.7v43.14H857.87z"/>
		<path class="st5" d="M887.93,221.36l12.75-49.38h6.81l12.75,49.38h-8.18l-2.41-10.61h-11.14l-2.4,10.61H887.93z M908.13,204.1
			l-4.01-17.89h-0.16l-4.01,17.89H908.13z"/>
		<path class="st5" d="M924.24,221.36v-49.38h8.18v21.15h10.1v-21.15h8.18v49.38h-8.18v-21.98h-10.1v21.98H924.24z"/>
		<path class="st5" d="M977.47,221.36v-32.04h-0.16l-10.74,32.04h-8.18v-49.38h8.18v32.11h0.16l10.74-32.11h8.18v49.38H977.47z"/>
		<path class="st5" d="M1010.97,221.36v-21.08h-3.77l-7.13,21.08h-8.34l7.78-21.98c-1.28-0.42-2.41-1.04-3.37-1.87
			s-1.74-1.78-2.32-2.84c-0.59-1.06-0.99-2.31-1.2-3.75c-0.21-1.43-0.32-2.91-0.32-4.44c0-9.66,4.81-14.49,14.43-14.49h12.42v49.38
			H1010.97z M1007.45,178.64c-2.89,0-4.77,0.66-5.65,1.98c-0.88,1.32-1.32,3.23-1.32,5.72c0,1.25,0.08,2.35,0.24,3.29
			c0.16,0.95,0.45,1.75,0.88,2.39c0.48,0.65,1.15,1.14,2,1.49c0.85,0.35,2,0.52,3.45,0.52h3.93v-15.4H1007.45z"/>
	</g>
</g>
</svg>
