<svg xmlns="http://www.w3.org/2000/svg" viewBox="0 0 1018.7 216.34"><defs><style>.cls-1{fill:#a8d8f8;}.cls-1,.cls-2,.cls-3,.cls-4{fill-rule:evenodd;}.cls-2{fill:#68aee5;}.cls-3{fill:#101d3f;}.cls-4,.cls-5{fill:#fff;}</style></defs><title>newLogoCleanProfit-V2</title><g id="Layer_1" data-name="Layer 1"><polygon class="cls-1" points="84.1 140.32 81.55 112.03 72.44 85.86 54.22 60.66 32.7 41.27 8.08 28.87 2.46 16.27 10.79 4.44 22.62 2.89 45.88 15.69 58.87 25.38 57.9 11.42 69.73 2.31 83.88 8.32 98.42 22.28 101.91 7.35 112.96 2.7 125.56 7.93 134.28 20.73 138.55 7.16 149.79 2.5 160.65 7.35 167.43 18.59 173.83 5.8 186.24 2.7 195.93 9.48 199.42 17.82 206.11 5.8 215.32 2.79 224.72 5.89 231.12 15.97 236.07 6.28 249.44 2.79 257.49 6.86 262.92 16.65 269.6 5.02 280.65 3.28 290.44 9.38 293.06 14.33 300.92 4.25 312.64 2.69 321.27 9.28 331.93 45.54 340.17 91.87 342.12 130.64 342.02 139.27 84.1 140.32"/><polygon class="cls-2" points="84.1 140.32 343.2 140.32 342.13 158.64 337.29 167.56 318.39 171.87 101.96 171.87 90.69 167.76 83.58 153.94 84.1 140.32"/><path class="cls-3" d="M226.37,152.74c0-1.17.06-3.35,0-6.39v-.14c-.65-19.68-5-72.95-32.22-119.65a11.52,11.52,0,0,0-21.1,2.81,11.63,11.63,0,0,0,0,5.86c14.84,25.19,22.48,52.37,26.39,74.4a254.49,254.49,0,0,1,4.08,43.11h-5.77l0-1.13a252.21,252.21,0,0,0-4-41c-4.48-25.23-13.94-57.36-33.83-85a11.51,11.51,0,0,0-18.68,13.44c19.86,27.61,28,60.37,31.27,83.77a197.67,197.67,0,0,1,2.32,29.91H169a205.79,205.79,0,0,0-2.2-29.47c-4-26.77-14.94-66.09-44.27-98.65a11.54,11.54,0,0,0-18.2,14.09q1.91,2.16,3.67,4.36c30.17,35.49,36.51,79.16,37.77,99.3.34,4.71.41,8.28.41,10.37H140.3c0-.92,0-3,0-5.9a184.69,184.69,0,0,0-16.45-67.41A150.46,150.46,0,0,0,79.54,23.22,11.55,11.55,0,0,0,64,40.19c1,.81,1.93,1.62,2.87,2.44A129.11,129.11,0,0,1,103.19,89.4c14.11,30.35,14.26,58.87,14.19,63.34h-5.76c.06-8.65-1.24-43.47-23.88-77.65C74.68,55.37,54.5,35.89,23.34,21.82a11.53,11.53,0,1,0-9.48,21C39.91,54.61,56.91,70.77,68,87.08,88.81,117.72,88.67,149,88.57,152.74H82.8c0-1.15,1.12-32-19.57-62.43C52.68,74.78,36.45,59.37,11.49,48.11A17.3,17.3,0,1,1,25.7,16.57,173,173,0,0,1,55.17,33.4,17.32,17.32,0,0,1,83.08,18.67a152.3,152.3,0,0,1,13.65,12,17.31,17.31,0,0,1,30.07-9.88c2.41,2.67,4.69,5.39,6.86,8.13a17.27,17.27,0,0,1,30.93-6.64c1.1,1.53,2.17,3.08,3.21,4.63a17.29,17.29,0,0,1,31.36-3.2L200.47,26a17.26,17.26,0,0,1,31.47-1.35l.41.83a17.28,17.28,0,0,1,31.43-.58,17.29,17.29,0,0,1,30.87-.63,17.27,17.27,0,0,1,31.64,2.62C345.93,85.15,347,143.63,347,152.74h-5.76c0-9-1.06-66.62-20.41-124.06A11.52,11.52,0,0,0,298.69,35c18.63,54.29,19.54,108.28,19.55,117.78h-5.88c0-8.57-1-62-18.83-114.92-.13-.37-.24-.75-.34-1.12q-1.44-4.22-3-8.42a11.52,11.52,0,1,0-21.56,8.12,293.81,293.81,0,0,1,10.6,34.48l.06.21.32,1.33,0,.08a358.66,358.66,0,0,1,9.93,80.24h-5.8a361.78,361.78,0,0,0-10.79-83.19,278.63,278.63,0,0,0-14.17-41.81,11.52,11.52,0,0,0-21.12,9.2c9.45,21.73,15,44.07,18.35,63.33l.13.76.07.39a314.4,314.4,0,0,1,4.69,51.32H255a309.93,309.93,0,0,0-4.79-52.17c-3.91-22.09-10.9-48.34-23.42-73.38a11.51,11.51,0,0,0-21.45,8c26,52,26.94,108,26.91,117.6ZM82.8,155.2v-2.46A16.83,16.83,0,0,0,82.8,155.2Z" transform="translate(-1.3 -15.02)"/><path class="cls-3" d="M152.17,182.21H329.22a12,12,0,0,0,11.92-11.92v-12H88.66v12a12,12,0,0,0,11.92,11.92Zm0-29.77H347v17.85a17.83,17.83,0,0,1-17.78,17.78H100.58A17.83,17.83,0,0,1,82.8,170.29V152.44Z" transform="translate(-1.3 -15.02)"/><path class="cls-3" d="M85.49,231.36a45.78,45.78,0,1,0-45.78-45.77A45.87,45.87,0,0,0,85.49,231.36Z" transform="translate(-1.3 -15.02)"/><path class="cls-1" d="M85.49,225.13a39.55,39.55,0,1,0-39.55-39.54A39.61,39.61,0,0,0,85.49,225.13Z" transform="translate(-1.3 -15.02)"/><path class="cls-3" d="M85.49,202.54a17,17,0,1,0-17-16.95A17,17,0,0,0,85.49,202.54Z" transform="translate(-1.3 -15.02)"/><path class="cls-4" d="M85.49,196.7a11.12,11.12,0,1,0-11.11-11.11A11.13,11.13,0,0,0,85.49,196.7Z" transform="translate(-1.3 -15.02)"/><path class="cls-3" d="M286.6,231.36a45.78,45.78,0,1,0-45.78-45.77A45.86,45.86,0,0,0,286.6,231.36Z" transform="translate(-1.3 -15.02)"/><path class="cls-1" d="M286.6,225.13a39.55,39.55,0,1,0-39.55-39.54A39.61,39.61,0,0,0,286.6,225.13Z" transform="translate(-1.3 -15.02)"/><path class="cls-3" d="M286.6,202.54a17,17,0,1,0-17-16.95A17,17,0,0,0,286.6,202.54Z" transform="translate(-1.3 -15.02)"/><path class="cls-4" d="M286.6,196.5a10.91,10.91,0,1,0-10.91-10.91A10.93,10.93,0,0,0,286.6,196.5Z" transform="translate(-1.3 -15.02)"/><path class="cls-3" d="M49.26,210.54H16.12a2.93,2.93,0,0,1,0-5.86H49.26v5.86Zm36.23,20.78H6.69a2.93,2.93,0,0,1,0-5.86h78.8Z" transform="translate(-1.3 -15.02)"/><path class="cls-3" d="M250.37,210.54H217.23a2.93,2.93,0,1,1,0-5.86h33.14v5.86Zm36.23,20.78H207.8a2.93,2.93,0,1,1,0-5.86h78.8Z" transform="translate(-1.3 -15.02)"/><path class="cls-3" d="M49.26,160.59H16.12a2.93,2.93,0,0,0,0,5.86H49.26v-5.86Zm36.23-20.78H6.69a2.94,2.94,0,0,0,0,5.87h78.8Z" transform="translate(-1.3 -15.02)"/><path class="cls-3" d="M367,74.1a61.16,61.16,0,0,1,2.16-16.81,35.36,35.36,0,0,1,6.57-12.9,28.58,28.58,0,0,1,11.21-8.24A41.09,41.09,0,0,1,403,33.26a49.18,49.18,0,0,1,10.57,1.12,42.9,42.9,0,0,1,9.05,3A21.41,21.41,0,0,1,429,41.67a7.64,7.64,0,0,1,2.4,5.37,5.6,5.6,0,0,1-5.76,5.6,4.93,4.93,0,0,1-2.81-.72c-.68-.47-1.7-1.13-3-2a27.34,27.34,0,0,0-16-5,28.66,28.66,0,0,0-11.38,2A17.66,17.66,0,0,0,385,52.8,24.61,24.61,0,0,0,381,62a55.69,55.69,0,0,0-1.2,12.09v34.28a56.25,56.25,0,0,0,1.2,12.09,24.37,24.37,0,0,0,4,9.21,17.59,17.59,0,0,0,7.44,5.84,28.66,28.66,0,0,0,11.38,2,27.77,27.77,0,0,0,16-5c1.34-.92,2.4-1.52,3-2a4.48,4.48,0,0,1,2.73-.72,5.45,5.45,0,0,1,4.16,1.68,5.52,5.52,0,0,1,1.6,3.92,7.6,7.6,0,0,1-2.4,5.37,21.35,21.35,0,0,1-6.32,4.32,42.91,42.91,0,0,1-9.05,3A49.18,49.18,0,0,1,403,149.22a40.91,40.91,0,0,1-16.1-2.89,28.7,28.7,0,0,1-11.21-8.25,35.47,35.47,0,0,1-6.57-12.89A61.21,61.21,0,0,1,367,108.38V74.1Zm79.88-36.19a6.19,6.19,0,0,1,1.77-4.41,6,6,0,0,1,4.48-1.84,6,6,0,0,1,6.25,6.25v94.81a19.55,19.55,0,0,0,.4,4.41,7.2,7.2,0,0,0,1.84,3.12,6.77,6.77,0,0,1,.72,1.28,4,4,0,0,1,.4,1.76,5.74,5.74,0,0,1-5.77,5.77,10.74,10.74,0,0,1-3.2-.56,7.55,7.55,0,0,1-3.28-2.25,13.44,13.44,0,0,1-2.57-4.88,29.06,29.06,0,0,1-1-8.65V37.91ZM508.7,138a26.71,26.71,0,0,0,8.81-1.29q3.69-1.28,7.85-3.2a6.37,6.37,0,0,1,.88-.32,5.28,5.28,0,0,1,1.36-.16,5.36,5.36,0,0,1,4,1.68,5.55,5.55,0,0,1,1.6,3.93,5.86,5.86,0,0,1-2.81,4.88,23.1,23.1,0,0,1-6.88,3.21A55.1,55.1,0,0,1,515,148.5a64.08,64.08,0,0,1-7.69.56,34.71,34.71,0,0,1-12.09-2A24,24,0,0,1,480.68,133a28.39,28.39,0,0,1-1.93-10.49V92.52a29.51,29.51,0,0,1,1.93-10.73,23.88,23.88,0,0,1,5.6-8.57,26.13,26.13,0,0,1,9.13-5.68,35.27,35.27,0,0,1,12.65-2.09q13.45,0,20,7t6.57,19.06q0,11.06-6.33,17.38t-20.74,6.32c-2.45,0-5.1-.11-7.92-.32a71.68,71.68,0,0,1-8.41-1.12v9.45a13.8,13.8,0,0,0,4.4,10.73c2.93,2.67,7.29,4,13.05,4Zm13.62-46.45q0-7.84-3.77-11.29c-2.5-2.29-6.11-3.45-10.81-3.45-5.23,0-9.29,1.32-12.17,3.93s-4.32,6.17-4.32,10.65v12.17c3,.43,6.14.73,9.44.88s5.77.24,7.37.24a20.08,20.08,0,0,0,7.29-1.12,11.22,11.22,0,0,0,4.4-3,9.05,9.05,0,0,0,2.09-4.25,24.42,24.42,0,0,0,.48-4.8Zm68.86,2.08q0-17.13-17.13-17.14a20,20,0,0,0-6.81,1,44.63,44.63,0,0,0-5.37,2.4c-.2.11-.75.35-1.6.72a6.33,6.33,0,0,1-2.56.56,3.54,3.54,0,0,1-3.28-1.76,8.68,8.68,0,0,1-1.2-3.52,5.65,5.65,0,0,1,1.6-4.73,14.33,14.33,0,0,1,5.2-3.28A31.91,31.91,0,0,1,567.4,66a61.14,61.14,0,0,1,8.25-.56q15.06,0,21.54,8.17t6.49,24.19V133c0,3.19,1,4.81,2.88,4.81a1.89,1.89,0,0,0,.56-.08,2.22,2.22,0,0,1,.72-.08,4,4,0,0,1,3.45,1.68,6.36,6.36,0,0,1,1.2,3.76,4.41,4.41,0,0,1-2.25,4.25,10.45,10.45,0,0,1-5,1.2,12.17,12.17,0,0,1-7.13-2.17,14.46,14.46,0,0,1-4.88-5.84,31.47,31.47,0,0,1-21.94,8.49q-12.5,0-18.5-6.65t-6-17.54v-.64q0-23.7,28.19-23.7a57.59,57.59,0,0,1,16.17,2.24V93.64ZM574.85,111.1a25.47,25.47,0,0,0-8,1,11,11,0,0,0-4.72,2.88,10.15,10.15,0,0,0-2.33,4.25,20.17,20.17,0,0,0-.64,5.12V125a13.77,13.77,0,0,0,3.05,9.21q3,3.6,11,3.61a26,26,0,0,0,9.44-1.68,28.6,28.6,0,0,0,8.49-5.37V113.5a47.38,47.38,0,0,0-8.32-1.84,63.32,63.32,0,0,0-8-.56Zm61.89,31.71a6.38,6.38,0,0,1-1.52,4.32,7.19,7.19,0,0,1-9.45,0,6.38,6.38,0,0,1-1.52-4.32V88.36a40.93,40.93,0,0,0-.24-5.13,15.26,15.26,0,0,0-.64-2.88,4.53,4.53,0,0,0-1-1.68,5.67,5.67,0,0,1-1-1.53,12.19,12.19,0,0,1-.72-1.2,4.07,4.07,0,0,1-.4-2,5.3,5.3,0,0,1,1.68-4,6.42,6.42,0,0,1,8.09-.32A13,13,0,0,1,632.9,73a38.89,38.89,0,0,1,11.21-5.44,40.69,40.69,0,0,1,11.69-1.76q12.81,0,19.14,8.32t6.33,22v46.76a6.21,6.21,0,0,1-1.6,4.32,7,7,0,0,1-9.29,0,6.17,6.17,0,0,1-1.61-4.32V96.05q0-9.14-3.76-14.1t-11-5a24.65,24.65,0,0,0-9.13,1.76,35.52,35.52,0,0,0-8.65,5,27.53,27.53,0,0,1,.48,4.65Z" transform="translate(-1.3 -15.02)"/><path class="cls-3" d="M717.94,106.13v36.52a6.75,6.75,0,0,1-1.84,4.73,6,6,0,0,1-4.56,2,6.05,6.05,0,0,1-4.49-2,6.61,6.61,0,0,1-1.92-4.73V42.55a7.67,7.67,0,0,1,7.69-7.69h23.54q9.93,0,16.82,3a29.81,29.81,0,0,1,11.13,7.92,30.87,30.87,0,0,1,6.16,11.46,47.38,47.38,0,0,1,1.93,13.53q0,17.13-9.77,26.27t-26.27,9.12Zm0-12.49h18.42q11.53,0,17.38-5.6t5.84-17.46a37.66,37.66,0,0,0-1-8.49,18.85,18.85,0,0,0-3.52-7.45A17.94,17.94,0,0,0,748,49.36a29,29,0,0,0-11.61-2H717.94V93.64Zm81.29,49.17a6.25,6.25,0,1,1-12.49,0V88.68a30.75,30.75,0,0,0-.56-6.49,15.12,15.12,0,0,0-2-4.72,15.26,15.26,0,0,1-.81-1.44,4.09,4.09,0,0,1-.32-1.77,5.1,5.1,0,0,1,1.77-4.08,5.92,5.92,0,0,1,4-1.52,5.72,5.72,0,0,1,3.52,1.2A12.63,12.63,0,0,1,795.23,73a46.12,46.12,0,0,1,11.21-5,37.58,37.58,0,0,1,10.73-1.85q4.8,0,6.57,1.77a5.88,5.88,0,0,1,1.76,4.32A6.37,6.37,0,0,1,823.66,77a5.79,5.79,0,0,1-4.41,1.6,50.1,50.1,0,0,0-9.69.56q-4.72.72-10.65,5.2c.11.86.19,1.63.24,2.33s.08,1.36.08,2v54.13ZM861,149.06a35.68,35.68,0,0,1-13-2.17,25.88,25.88,0,0,1-9.37-6,25.25,25.25,0,0,1-5.69-9A32.6,32.6,0,0,1,831,120.55V93.8A31.9,31.9,0,0,1,833,82.67a25.25,25.25,0,0,1,5.69-9A26.81,26.81,0,0,1,848,67.54a38.51,38.51,0,0,1,25.94,0,26.81,26.81,0,0,1,9.37,6.08,25.34,25.34,0,0,1,5.69,9,32.18,32.18,0,0,1,1.92,11.13v26.75A32.64,32.64,0,0,1,889,131.84a25.34,25.34,0,0,1-5.69,9,26,26,0,0,1-9.37,6,35.68,35.68,0,0,1-13,2.17Zm0-11.54q8.65,0,13-4.48t4.41-12.49V93.64q0-7.85-4.41-12.33t-13-4.49c-5.76,0-10.12,1.5-13.05,4.49s-4.41,7.11-4.41,12.33v26.91q0,8,4.41,12.49c2.93,3,7.29,4.48,13.05,4.48ZM968.25,40.79a7.69,7.69,0,1,0-13.13,5.44,7.69,7.69,0,0,0,13.13-5.44Zm-1.44,102V72.18a6.14,6.14,0,0,0-1.76-4.4,6.36,6.36,0,0,0-9,0,6.17,6.17,0,0,0-1.76,4.4v70.63a6.25,6.25,0,1,0,12.49,0Zm-59.76-81A40.59,40.59,0,0,1,909,48.56a26.67,26.67,0,0,1,5.2-9.21A20.84,20.84,0,0,1,922,33.82a30,30,0,0,1,9.85-2.16c.62,0,1.76,0,3.36.08a22.67,22.67,0,0,1,4.88.72,11.89,11.89,0,0,1,4.41,2.16,5.12,5.12,0,0,1,1.92,4.25,5.43,5.43,0,0,1-1.84,4.32,6.26,6.26,0,0,1-4.24,1.6,17.48,17.48,0,0,1-4.25-.56,23.16,23.16,0,0,0-5.52-.56,9,9,0,0,0-8.25,5,23.82,23.82,0,0,0-2.8,11.85v9.93H936.2a5.58,5.58,0,0,1,4.09,1.68,6.2,6.2,0,0,1,0,8.49,5.61,5.61,0,0,1-4.09,1.68H919.55v60.22a6.3,6.3,0,0,1-1.6,4.33,7,7,0,0,1-9.3,0,6.25,6.25,0,0,1-1.6-4.33V61.77Zm76-13.45A6.25,6.25,0,0,1,984.6,44a7,7,0,0,1,9.29,0,6.24,6.24,0,0,1,1.6,4.33v22.1h16.66a5.58,5.58,0,0,1,4.09,1.68,6.2,6.2,0,0,1,0,8.49,5.63,5.63,0,0,1-4.09,1.68H995.49v31.87c0,4.14.14,7.66.41,10.49a18.67,18.67,0,0,0,1.84,7,8.62,8.62,0,0,0,4,3.92,16.61,16.61,0,0,0,6.89,1.2c.53,0,1,0,1.52-.08s1-.07,1.52-.07a27.64,27.64,0,0,1,2.88.15,7.59,7.59,0,0,1,2.65.8,5.76,5.76,0,0,1,2,1.77,5.2,5.2,0,0,1,.8,3,5.91,5.91,0,0,1-.8,3.28,5.37,5.37,0,0,1-2.08,1.85,8.38,8.38,0,0,1-3,.8c-1.11.09-2.22.16-3.29.16A38.91,38.91,0,0,1,997,146.33a18.84,18.84,0,0,1-8.49-6.24,24.88,24.88,0,0,1-4.33-10.33,78.44,78.44,0,0,1-1.2-14.5Z" transform="translate(-1.3 -15.02)"/><path class="cls-5" d="M394.39,178.64a5.94,5.94,0,0,0-1.85.25,3.66,3.66,0,0,0-1.36.86,3.27,3.27,0,0,0-.88,1.53,16.23,16.23,0,0,0-.4,2l-.73,5.76a13,13,0,0,1-.24,1.66c-.1.46-.21.94-.32,1.42a4.12,4.12,0,0,1-.48,1.29,7.12,7.12,0,0,1-1.16,1.69,7,7,0,0,1-1.32,1.15l8.5,25.1h-8.34l-7.22-22H374v22h-8.17V172H374v21.15h2.73a6.44,6.44,0,0,0,2.32-.35,3.74,3.74,0,0,0,1.45-1,3.78,3.78,0,0,0,.8-1.42,14.58,14.58,0,0,0,.4-1.77l.8-5.89a11.43,11.43,0,0,0,.2-1.15,14.71,14.71,0,0,1,.44-2,16,16,0,0,1,.88-2.29,10.21,10.21,0,0,1,1.45-2.22,8.6,8.6,0,0,1,3.73-2.4,16.63,16.63,0,0,1,5.17-.72Z" transform="translate(-1.3 -15.02)"/><path class="cls-5" d="M411.14,178.23v14.35c0,.74,0,2-.08,3.78s-.19,3.74-.4,5.86-.54,4.23-1,6.31a19,19,0,0,1-1.77,5.2,15.81,15.81,0,0,1-4.89,5.59,12.42,12.42,0,0,1-7.21,2h-.48v-7.07a6.38,6.38,0,0,0,3.76-1.25,8.9,8.9,0,0,0,2.25-2.77,14.85,14.85,0,0,0,1.16-3.54,43.18,43.18,0,0,0,.68-4.44c.16-1.57.27-3.19.32-4.85s.08-3.26.08-4.79V172h23.73v49.37h-8.18V178.23Z" transform="translate(-1.3 -15.02)"/><path class="cls-5" d="M454.1,221.36v-32h-.16l-10.74,32H435V172h8.18V204.1h.16L454.1,172h8.18v49.37Z" transform="translate(-1.3 -15.02)"/><path class="cls-5" d="M470,221.36V172h8.18v21.15h10.1V172h8.18v49.37h-8.18v-22h-10.1v22Z" transform="translate(-1.3 -15.02)"/><path class="cls-5" d="M523.2,221.36v-32H523l-10.74,32h-8.18V172h8.18V204.1h.16L523.2,172h8.18v49.37Z" transform="translate(-1.3 -15.02)"/><path class="cls-5" d="M539.07,221.36V172h8.18v21.15h10.1V172h8.18v49.37h-8.18v-22h-10.1v22Z" transform="translate(-1.3 -15.02)"/><path class="cls-5" d="M573.22,221.36V172H596v6.65H581.4v42.72Z" transform="translate(-1.3 -15.02)"/><path class="cls-5" d="M598.55,183.64a11.16,11.16,0,0,1,1.2-5.27,11.45,11.45,0,0,1,3.21-3.82,14.19,14.19,0,0,1,4.37-2.22,16.37,16.37,0,0,1,9.86,0,15.34,15.34,0,0,1,4.45,2.22,11.81,11.81,0,0,1,3.12,3.82,11,11,0,0,1,1.21,5.27v26.07a11,11,0,0,1-1.21,5.34,11.28,11.28,0,0,1-3.12,3.68,14.35,14.35,0,0,1-4.45,2.29,16.37,16.37,0,0,1-9.86,0,13.32,13.32,0,0,1-4.37-2.29,11,11,0,0,1-3.21-3.68,11.09,11.09,0,0,1-1.2-5.34Zm8.18,26.07a4.4,4.4,0,0,0,1.64,3.78,6.81,6.81,0,0,0,7.78,0,4.4,4.4,0,0,0,1.64-3.78V183.64a4.4,4.4,0,0,0-1.64-3.78,6.81,6.81,0,0,0-7.78,0,4.4,4.4,0,0,0-1.64,3.78Z" transform="translate(-1.3 -15.02)"/><path class="cls-5" d="M633.18,221.36V172h11.94a19,19,0,0,1,6.7,1,12.87,12.87,0,0,1,4.53,2.77,10.18,10.18,0,0,1,2.52,4,14.43,14.43,0,0,1,.76,4.68v1.8a13.73,13.73,0,0,1-.36,3.4,7.59,7.59,0,0,1-1.08,2.43,10.89,10.89,0,0,1-4.17,3.33,8.43,8.43,0,0,1,4.25,3.46,12.2,12.2,0,0,1,1.36,6.25v2.77c0,4.35-1.21,7.67-3.64,10s-6.32,3.46-11.67,3.46Zm8.18-42.72v13.6H645q4.1,0,5.5-1.77a8.21,8.21,0,0,0,1.4-5.17,7.06,7.06,0,0,0-1.56-5c-1-1.11-2.93-1.67-5.66-1.67Zm0,19.84v15.81h3.52a9.9,9.9,0,0,0,3.89-.62,4.77,4.77,0,0,0,2.13-1.74,6,6,0,0,0,.88-2.63c.1-1,.16-2.13.16-3.33a19.31,19.31,0,0,0-.24-3.26,5.45,5.45,0,0,0-1-2.36,4.61,4.61,0,0,0-2.17-1.42,11.82,11.82,0,0,0-3.61-.45Z" transform="translate(-1.3 -15.02)"/><path class="cls-5" d="M662,221.36,674.79,172h6.81l12.74,49.37h-8.17l-2.41-10.61H672.62l-2.4,10.61Zm20.2-17.26-4-17.9h-.16l-4,17.9Z" transform="translate(-1.3 -15.02)"/><path class="cls-5" d="M715.19,221.36V200.28h-3.77l-7.14,21.08H696l7.77-22a9.69,9.69,0,0,1-3.36-1.87,10.35,10.35,0,0,1-2.33-2.85,10.9,10.9,0,0,1-1.2-3.74,30.52,30.52,0,0,1-.32-4.44q0-14.49,14.43-14.49h12.42v49.37Zm-3.53-42.72q-4.33,0-5.65,2a10.32,10.32,0,0,0-1.32,5.72,20.07,20.07,0,0,0,.24,3.3,6.16,6.16,0,0,0,.88,2.39,4.57,4.57,0,0,0,2,1.49,9.35,9.35,0,0,0,3.45.52h3.93v-15.4Z" transform="translate(-1.3 -15.02)"/><path class="cls-5" d="M774.5,178.64a5.88,5.88,0,0,0-1.84.25,3.59,3.59,0,0,0-1.36.86,3.27,3.27,0,0,0-.88,1.53,18.2,18.2,0,0,0-.41,2l-.72,5.76a13,13,0,0,1-.24,1.66c-.1.46-.21.94-.32,1.42a4.68,4.68,0,0,1-.48,1.29,7.12,7.12,0,0,1-1.16,1.69,7.72,7.72,0,0,1-1.32,1.15l8.49,25.1h-8.33l-7.22-22h-4.57v22H746V172h8.17v21.15h2.73a6.47,6.47,0,0,0,2.32-.35,3.74,3.74,0,0,0,1.45-1,3.78,3.78,0,0,0,.8-1.42,14.58,14.58,0,0,0,.4-1.77l.8-5.89a11.43,11.43,0,0,0,.2-1.15,14.71,14.71,0,0,1,.44-2,14.87,14.87,0,0,1,.88-2.29,10.21,10.21,0,0,1,1.45-2.22,8.62,8.62,0,0,1,3.72-2.4,16.72,16.72,0,0,1,5.17-.72Z" transform="translate(-1.3 -15.02)"/><path class="cls-5" d="M778.67,183.64a11.16,11.16,0,0,1,1.2-5.27,11.45,11.45,0,0,1,3.21-3.82,14.19,14.19,0,0,1,4.37-2.22,16.37,16.37,0,0,1,9.86,0,15.34,15.34,0,0,1,4.45,2.22,11.81,11.81,0,0,1,3.12,3.82,11,11,0,0,1,1.21,5.27v26.07a11,11,0,0,1-1.21,5.34,11.28,11.28,0,0,1-3.12,3.68,14.35,14.35,0,0,1-4.45,2.29,16.37,16.37,0,0,1-9.86,0,13.32,13.32,0,0,1-4.37-2.29,11,11,0,0,1-3.21-3.68,11.09,11.09,0,0,1-1.2-5.34Zm8.18,26.07a4.4,4.4,0,0,0,1.64,3.78,6.81,6.81,0,0,0,7.78,0,4.4,4.4,0,0,0,1.64-3.78V183.64a4.4,4.4,0,0,0-1.64-3.78,6.81,6.81,0,0,0-7.78,0,4.4,4.4,0,0,0-1.64,3.78Z" transform="translate(-1.3 -15.02)"/><path class="cls-5" d="M813.3,221.36V172h7.86l10.5,26.14h.16L842.24,172h7.93v49.37H842v-30h-.16l-8.1,21.23h-4.09l-8-21.23h-.16v30Z" transform="translate(-1.3 -15.02)"/><path class="cls-5" d="M857.87,221.36V172h26v49.37h-8.17V178.23h-9.7v43.13Z" transform="translate(-1.3 -15.02)"/><path class="cls-5" d="M887.93,221.36,900.67,172h6.82l12.74,49.37h-8.17l-2.41-10.61H898.51l-2.4,10.61Zm20.2-17.26-4-17.9H904l-4,17.9Z" transform="translate(-1.3 -15.02)"/><path class="cls-5" d="M924.24,221.36V172h8.18v21.15h10.1V172h8.18v49.37h-8.18v-22h-10.1v22Z" transform="translate(-1.3 -15.02)"/><path class="cls-5" d="M977.47,221.36v-32h-.16l-10.74,32h-8.18V172h8.18V204.1h.16L977.47,172h8.17v49.37Z" transform="translate(-1.3 -15.02)"/><path class="cls-5" d="M1011,221.36V200.28h-3.76l-7.14,21.08h-8.33l7.77-22a9.82,9.82,0,0,1-3.37-1.87,10.5,10.5,0,0,1-2.32-2.85,10.9,10.9,0,0,1-1.2-3.74,29.18,29.18,0,0,1-.32-4.44q0-14.49,14.43-14.49h12.42v49.37Zm-3.52-42.72q-4.34,0-5.65,2a10.23,10.23,0,0,0-1.33,5.72,20.07,20.07,0,0,0,.24,3.3,6.17,6.17,0,0,0,.89,2.39,4.52,4.52,0,0,0,2,1.49,9.27,9.27,0,0,0,3.45.52H1011v-15.4Z" transform="translate(-1.3 -15.02)"/></g></svg>